<?xml version="1.0" encoding="UTF-8" standalone="no"?>
<svg
   height="100"
   width="100"
   id="svg10"
   xml:space="preserve"
   enable-background="new 0 0 100 100"
   viewBox="0 0 100 100"
   y="0px"
   x="0px"
   version="1.1"
   sodipodi:docname="icon.svg"
   inkscape:version="1.2.2 (b0a8486541, 2022-12-01)"
   xmlns:inkscape="http://www.inkscape.org/namespaces/inkscape"
   xmlns:sodipodi="http://sodipodi.sourceforge.net/DTD/sodipodi-0.dtd"
   xmlns="http://www.w3.org/2000/svg"
   xmlns:svg="http://www.w3.org/2000/svg"
   xmlns:rdf="http://www.w3.org/1999/02/22-rdf-syntax-ns#"
   xmlns:cc="http://creativecommons.org/ns#"
   xmlns:dc="http://purl.org/dc/elements/1.1/"><sodipodi:namedview
     id="namedview10"
     pagecolor="#ffffff"
     bordercolor="#000000"
     borderopacity="0.25"
     inkscape:showpageshadow="2"
     inkscape:pageopacity="0.0"
     inkscape:pagecheckerboard="0"
     inkscape:deskcolor="#d1d1d1"
     showgrid="false"
     inkscape:zoom="8.04"
     inkscape:cx="26.99005"
     inkscape:cy="50"
     inkscape:window-width="1920"
     inkscape:window-height="1007"
     inkscape:window-x="0"
     inkscape:window-y="25"
     inkscape:window-maximized="1"
     inkscape:current-layer="svg10" /><metadata
     id="metadata16"><rdf:RDF><cc:Work
         rdf:about=""><dc:format>image/svg+xml</dc:format><dc:type
           rdf:resource="http://purl.org/dc/dcmitype/StillImage" /><dc:title /></cc:Work></rdf:RDF></metadata><defs
     id="defs14" /><rect
     y="1"
     x="0"
     height="100"
     width="100"
     id="rect826"
     style="opacity:0.98000004;fill:#5488d0;fill-opacity:1;stroke:#000000;stroke-width:0.37799999;stroke-miterlimit:4;stroke-dasharray:none;stroke-opacity:1" /><polygon
     style="fill:#000000"
     transform="translate(0,1)"
     id="polygon2"
     points="47.62,57.14 52.38,57.14 52.38,66.67 66.66,66.67 66.66,47.62 80.95,47.62 80.95,52.38 71.43,52.38 71.43,71.43 47.62,71.43 47.62,61.91 42.85,61.91 42.85,80.95 38.09,80.95 38.09,57.14 42.85,57.14 42.85,52.38 33.33,52.38 33.33,85.71 42.85,85.71 42.85,90.48 9.52,90.48 9.52,71.43 14.29,71.43 14.29,85.71 28.57,85.71 28.57,76.19 23.81,76.19 23.81,80.95 19.05,80.95 19.05,71.43 28.57,71.43 28.57,47.62 57.14,47.62 57.14,38.09 85.71,38.09 85.71,4.76 57.14,4.76 57.14,9.52 80.95,9.52 80.95,33.33 66.66,33.33 66.66,28.57 76.19,28.57 76.19,14.29 19.05,14.29 19.05,9.52 52.38,9.52 52.38,4.76 4.76,4.76 4.76,47.62 0,47.62 0,0 100,0 100,47.62 95.23,47.62 95.23,4.76 90.47,4.76 90.47,71.43 85.71,71.43 85.71,61.91 76.19,61.91 76.19,57.14 85.71,57.14 85.71,42.86 61.9,42.86 61.9,61.91 57.14,61.91 57.14,52.38 47.62,52.38 " /><polygon
     transform="translate(0,1)"
     id="polygon4"
     points="71.43,23.81 61.9,23.81 61.9,33.33 52.38,33.33 52.38,42.86 38.09,42.86 38.09,28.57 42.85,28.57 42.85,38.09 47.62,38.09 47.62,23.81 33.33,23.81 33.33,42.86 23.81,42.86 23.81,66.67 9.52,66.67 9.52,61.91 14.29,61.91 14.29,61.9 19.05,61.9 19.05,38.09 28.57,38.09 28.57,23.81 23.81,23.81 23.81,33.33 14.29,33.33 14.29,57.14 4.76,57.14 4.76,95.24 47.62,95.24 47.62,76.19 71.43,76.19 71.43,85.71 90.47,85.71 90.47,90.48 57.14,90.48 57.14,85.71 66.66,85.71 66.66,80.95 52.38,80.95 52.38,95.24 95.23,95.24 95.23,80.95 76.19,80.95 76.19,66.67 80.95,66.67 80.95,76.19 95.23,76.19 95.23,52.38 100,52.38 100,100 0,100 0,52.38 9.52,52.38 9.52,28.57 19.05,28.57 19.05,23.81 9.52,23.81 9.52,9.52 14.29,9.52 14.29,19.05 52.38,19.05 52.38,28.57 57.14,28.57 57.14,19.05 71.43,19.05 " /><rect
     y="48.619999"
     x="0"
     height="4.8691421"
     width="4.5683265"
     id="rect828"
     style="opacity:0.98000004;fill:#000000;fill-opacity:1;stroke:#000000;stroke-width:0.37799999;stroke-miterlimit:4;stroke-dasharray:none;stroke-opacity:1" /><rect
     y="48.619999"
     x="95.421745"
     height="4.6043115"
     width="4.5782571"
     id="rect834"
     style="opacity:0.98000004;fill:#000000;fill-opacity:1;stroke:#000000;stroke-width:0.37799999;stroke-miterlimit:4;stroke-dasharray:none;stroke-opacity:1" /></svg>
