<?xml version="1.0" encoding="UTF-8" standalone="no"?>
<svg
   xmlns:dc="http://purl.org/dc/elements/1.1/"
   xmlns:cc="http://creativecommons.org/ns#"
   xmlns:rdf="http://www.w3.org/1999/02/22-rdf-syntax-ns#"
   xmlns:svg="http://www.w3.org/2000/svg"
   xmlns="http://www.w3.org/2000/svg"
   id="SVGRoot"
   version="1.1"
   viewBox="0 0 64 64"
   height="64px"
   width="64px">
  <defs
     id="defs4515" />
  <metadata
     id="metadata4518">
    <rdf:RDF>
      <cc:Work
         rdf:about="">
        <dc:format>image/svg+xml</dc:format>
        <dc:type
           rdf:resource="http://purl.org/dc/dcmitype/StillImage" />
        <dc:title></dc:title>
      </cc:Work>
    </rdf:RDF>
  </metadata>
  <g
     id="layer1">
    <g
       id="g2700"
       transform="translate(-144,-70)">
      <g
         id="use2698">
        <path
           d="M 208,77.95 Q 208,70 200.05,70 h -48.1 Q 144,70 144,77.95 v 48.1 q 0,7.95 7.95,7.95 h 48.1 q 7.95,0 7.95,-7.95 V 77.95 M 200.05,72 q 5.95,0 5.95,5.95 v 48.1 q 0,5.95 -5.95,5.95 h -48.1 Q 146,132 146,126.05 V 77.95 Q 146,72 151.95,72 h 48.1 m -4.55,10.5 h -10 l -29,29 v 10 h 10 l 29,-29 z"
           id="path5227"
           style="fill:#d9944e;stroke:none" />
        <path
           d="M 206,77.95 Q 206,72 200.05,72 h -48.1 Q 146,72 146,77.95 v 48.1 q 0,5.95 5.95,5.95 h 48.1 q 5.95,0 5.95,-5.95 V 77.95 M 198,80 v 44 H 154 V 80 Z"
           id="path5229"
           style="fill:#cd8c4a;stroke:none" />
        <path
           d="M 198,124 V 80 h -44 v 44 h 44 M 185.5,82.5 h 10 v 10 l -29,29 h -10 v -10 z"
           id="path5231"
           style="fill:#aa733c;stroke:none" />
      </g>
    </g>
  </g>
</svg>
