<?xml version="1.0" encoding="UTF-8" standalone="no"?>
<svg
   xmlns:dc="http://purl.org/dc/elements/1.1/"
   xmlns:cc="http://creativecommons.org/ns#"
   xmlns:rdf="http://www.w3.org/1999/02/22-rdf-syntax-ns#"
   xmlns:svg="http://www.w3.org/2000/svg"
   xmlns="http://www.w3.org/2000/svg"
   width="64px"
   height="64px"
   viewBox="0 0 64 64"
   version="1.1"
   id="SVGRoot">
  <defs
     id="defs4515" />
  <metadata
     id="metadata4518">
    <rdf:RDF>
      <cc:Work
         rdf:about="">
        <dc:format>image/svg+xml</dc:format>
        <dc:type
           rdf:resource="http://purl.org/dc/dcmitype/StillImage" />
        <dc:title></dc:title>
      </cc:Work>
    </rdf:RDF>
  </metadata>
  <g
     id="g3000"
     transform="translate(-1055.4175,-385.38724)">
    <g
       transform="translate(97.355931,17.355935)"
       id="use2998">
      <path
         d="m 992.9,391.55 q -2.85,-2.85 -5.7,0 l -5.65,5.65 q -1.15,1.15 -1.35,2.3 -0.35,1.7 1.35,3.4 l 5.65,5.65 q 2.85,2.8 5.7,-0.05 l 5.65,-5.65 q 1.65,-1.65 1.4,-3.25 -0.2,-1.2 -1.4,-2.4 l -5.65,-5.65 m -4.25,1.45 q 1.4,-1.45 2.85,0 l 5.65,5.65 q 0.75,0.7 0.85,1.4 -0.15,0.65 -0.85,1.4 l -5.65,5.65 q -1.45,1.4 -2.9,0.05 h 0.05 L 983,401.5 q -1.45,-1.45 0,-2.85 z"
         id="path5082"
         style="fill:#33e27d;stroke:none" />
      <path
         d="m 991.5,393 q -1.45,-1.45 -2.85,0 l -5.65,5.65 q -1.45,1.4 0,2.85 l 5.65,5.65 h -0.05 q 1.45,1.35 2.9,-0.05 l 5.65,-5.65 q 0.7,-0.75 0.85,-1.4 -0.1,-0.7 -0.85,-1.4 z"
         id="path5084"
         style="fill:#2ecc71;stroke:none" />
    </g>
  </g>
  <g
     id="g2880"
     transform="translate(-70,-218)">
    <g
       id="use2878">
      <path
         d="m 92,282 v -2 H 77.95 Q 72,280 72,274.05 V 260 h -2 v 14.05 Q 70,282 77.95,282 H 92 m 20,-2 v 2 h 14.05 q 7.95,0 7.95,-7.95 V 260 h -2 v 14.05 q 0,5.95 -5.95,5.95 H 112 M 92,220 v -2 H 77.95 Q 70,218 70,225.95 V 240 h 2 V 225.95 Q 72,220 77.95,220 H 92 m 42,5.95 Q 134,218 126.05,218 H 112 v 2 h 14.05 q 5.95,0 5.95,5.95 V 240 h 2 z"
         id="path834"
         style="fill:#ffffff;fill-opacity:0.30196078;stroke:none" />
      <path
         d="m 92,280 v -4 H 77.95 Q 76,276 76,274.05 V 260 h -4 v 14.05 Q 72,280 77.95,280 H 92 m 20,-4 v 4 h 14.05 q 5.95,0 5.95,-5.95 V 260 h -4 v 14.05 q 0,1.95 -1.95,1.95 H 112 M 92,224 v -4 H 77.95 Q 72,220 72,225.95 V 240 h 4 V 225.95 Q 76,224 77.95,224 H 92 m 36,16 h 4 V 225.95 Q 132,220 126.05,220 H 112 v 4 h 14.05 q 1.95,0 1.95,1.95 z"
         id="path836"
         style="fill:#000000;fill-opacity:0.2;stroke:none" />
    </g>
  </g>
</svg>
