<?xml version="1.0" encoding="UTF-8" standalone="no"?>
<svg
   xmlns:dc="http://purl.org/dc/elements/1.1/"
   xmlns:cc="http://creativecommons.org/ns#"
   xmlns:rdf="http://www.w3.org/1999/02/22-rdf-syntax-ns#"
   xmlns:svg="http://www.w3.org/2000/svg"
   xmlns="http://www.w3.org/2000/svg"
   width="64px"
   height="64px"
   viewBox="0 0 64 64"
   version="1.1"
   id="SVGRoot">
  <defs
     id="defs6023" />
  <metadata
     id="metadata6026">
    <rdf:RDF>
      <cc:Work
         rdf:about="">
        <dc:format>image/svg+xml</dc:format>
        <dc:type
           rdf:resource="http://purl.org/dc/dcmitype/StillImage" />
        <dc:title></dc:title>
      </cc:Work>
    </rdf:RDF>
  </metadata>
  <g
     transform="translate(118.50848,54.50847)"
     id="g2582">
    <g
       transform="translate(-484.88116,-568.48747)"
       id="g3472">
      <g
         id="use3470">
        <path
           style="fill:#333333;stroke:none"
           id="path2493"
           d="m 417.05,561.6 q -2.3,-0.4 -4.5,0.9 -2.2,1.25 -3,3.45 -0.85,2.15 0.2,4 0.05,0.1 0.1,0.15 0.05,0.15 0.1,0.2 0.3,0.3 0.8,0.5 0.7,0.15 1.7,0.15 0.55,-0.1 1.15,-0.2 1.4,-0.35 3,-1.25 1.55,-0.9 2.65,-2 0.4,-0.5 0.7,-0.9 0.1,-0.1 0.2,-0.2 0.85,-1.4 0.5,-2.25 -0.05,-0.05 -0.1,-0.2 -0.05,-0.05 -0.1,-0.15 -1.05,-1.85 -3.4,-2.2 z" />
      </g>
    </g>
    <g
       transform="translate(-484.88116,-568.48747)"
       id="g3476">
      <g
         id="use3474">
        <path
           style="fill:#333333;stroke:none"
           id="path2497"
           d="m 392.1,565.9 q -0.8,-2.2 -3,-3.5 -2.2,-1.25 -4.5,-0.85 -2.35,0.35 -3.4,2.2 -0.05,0.1 -0.1,0.15 -0.05,0.15 -0.1,0.2 -0.1,0.4 0,0.9 0.2,0.65 0.7,1.55 0.35,0.4 0.75,0.9 1,1.05 2.6,1.95 1.55,0.9 3.05,1.3 0.6,0.1 1.1,0.2 0.2,0 0.3,0 1.65,0.1 2.2,-0.65 0.05,-0.05 0.1,-0.2 0.05,-0.05 0.1,-0.15 1.05,-1.85 0.2,-4 z" />
      </g>
    </g>
    <g
       transform="translate(-484.88116,-568.48747)"
       id="g3480">
      <g
         id="use3478">
        <path
           style="fill:#2ecc71;stroke:none"
           id="path2501"
           d="M 399.55,551.4 H 387.7 q -2.85,2.55 -3.2,7.65 11.85,0 15.05,-7.65 z" />
        <path
           style="fill:#e74c3c;stroke:none"
           id="path2503"
           d="m 384.8,564 q 0.7,2.95 4.1,2.95 h 24.5 q 2.5,0 3.5,-1.65 0.25,-0.4 0.4,-0.95 0.1,-0.3 0.15,-0.75 0.15,-0.65 0.2,-1.3 0.55,-7.35 -3.1,-10.9 h -15 q -3.2,7.65 -15.05,7.65 -0.1,1.5 0,3.2 v 0.05 q 0.1,0.5 0.15,0.95 0.05,0.2 0.05,0.35 0.05,0.2 0.1,0.4 z" />
      </g>
    </g>
    <g
       transform="translate(-484.88116,-568.48747)"
       id="g3484">
      <g
         id="use3482">
        <path
           style="fill:#2ecc71;stroke:none"
           id="path2507"
           d="m 403.05,556.25 q -0.25,2.5 1.85,5.85 0.2,0.2 0.35,0.5 0.9,1.25 2.1,0.2 1.25,-1.05 3.15,-2.05 1.95,-1.05 3.15,-1.2 1.05,-0.2 -0.1,-3.45 -1.25,-2.75 -3.45,-3.7 -0.35,-0.15 -0.8,-0.2 -1.4,-0.25 -2.55,0.1 -0.75,0.2 -1.55,0.75 -1.6,1.2 -2.15,3.2 z" />
      </g>
    </g>
    <g
       transform="translate(-484.88116,-568.48747)"
       id="g3488">
      <g
         id="use3486">
        <path
           style="fill:#ffe0b1;stroke:none"
           id="path2511"
           d="m 404.75,560.65 q -0.05,0.35 -0.1,0.65 0.05,0.05 0.05,0.15 -0.05,0.05 0,0.1 0,1.25 1.5,2.1 1.7,1.05 3.9,0.95 2.3,0.1 3.85,-0.9 1.55,-0.8 1.6,-2.15 0.05,-0.1 0,-0.3 0,-0.3 0,-0.55 -0.1,-1.9 -1.5,-3.3 -1,-0.95 -2.15,-1.35 -0.7,-0.35 -1.75,-0.35 -2.3,0 -4,1.75 -1.35,1.3 -1.4,3.2 z" />
      </g>
    </g>
    <g
       transform="translate(-484.88116,-568.48747)"
       id="g3492">
      <g
         id="use3490">
        <path
           style="fill:#694c39;stroke:none"
           id="path2515"
           d="m 418.95,540 q -0.15,-3.2 -0.65,-6.4 -0.2,-1.75 -1.1,-2.7 -1.05,-1.1 -2.95,-1.1 H 403.6 q -1.7,18.7 14.7,20.8 0,-0.05 0,-0.1 0.6,-3.65 0.65,-7.35 0.05,-1.6 0,-3.15 z" />
        <path
           style="fill:#ffe0b1;stroke:none"
           id="path2517"
           d="m 403.6,529.8 h -13.9 q -2.05,0 -3.1,1.1 -0.85,0.95 -1.1,2.6 -0.35,2.95 -0.55,5.85 -0.1,1.9 -0.05,3.8 0,0.3 0,0.6 0.1,3.25 0.5,6.35 0.05,0.2 0.05,0.4 0.05,0.2 0.1,0.45 0.7,3.25 4.15,3.25 h 24.55 q 2.5,0 3.5,-1.8 0.25,-0.45 0.4,-1.1 0.1,-0.3 0.15,-0.7 -16.4,-2.1 -14.7,-20.8 z" />
      </g>
    </g>
    <g
       transform="translate(-484.88116,-568.48747)"
       id="g3496">
      <g
         id="use3494">
        <path
           style="fill:#694c39;stroke:none"
           id="path2521"
           d="m 397.95,543.85 q 0,-1.3 -0.6,-2.1 -0.6,-0.9 -1.4,-0.9 -0.85,0 -1.4,0.9 -0.6,0.8 -0.6,2.1 0,1.35 0.6,2.15 0.55,0.9 1.4,0.9 0.8,0 1.4,-0.9 0.6,-0.8 0.6,-2.15 z" />
      </g>
    </g>
    <g
       transform="translate(-484.88116,-568.48747)"
       id="g3500">
      <g
         id="use3498">
        <path
           style="fill:#ffe0b1;stroke:none"
           id="path2525"
           d="m 387.05,548.6 q 0.9,-0.35 0.9,-0.8 -0.1,-1.15 -0.9,-2 -0.9,-0.9 -2.15,-0.9 -1.2,0 -2.15,0.9 -0.85,0.85 -0.85,2 0,0.45 0.85,0.8 0.95,0.3 2.15,0.3 1.25,0 2.15,-0.3 z" />
      </g>
    </g>
    <g
       transform="translate(-484.88116,-568.48747)"
       id="g3504">
      <g
         id="use3502">
        <path
           style="fill:#694c39;stroke:none"
           id="path2529"
           d="m 392.9,552.4 q 2.05,-0.45 2.05,-1.2 -0.2,-1.75 -2.05,-3 -2.1,-1.3 -4.95,-1.3 -0.3,0 -0.6,0.05 -1.15,0.1 -2,1.25 -0.9,1.25 -0.9,3 0,0.75 0.9,1.2 0.85,0.45 2,0.5 0.3,0 0.6,0 2.85,0 4.95,-0.5 z" />
      </g>
    </g>
    <g
       transform="translate(-484.88116,-568.48747)"
       id="g3508">
      <g
         id="use3506">
        <path
           style="fill:#28b162;stroke:none"
           id="path2533"
           d="m 384.35,525.7 -0.05,0.8 q 3.3,0.15 5.55,2.2 1.9,1.75 2.05,4.1 15.9,1.05 27.9,4.65 l 0.15,-2.15 q 0,-0.1 0,-0.2 0.95,-11.65 -15.75,-13.85 -7.05,-0.55 -14.3,0.15 -4.7,0.35 -5.5,4.3 z" />
        <path
           style="fill:#ffffff;stroke:none"
           id="path2535"
           d="m 384.3,526.5 -0.3,6 q 4.1,0.05 7.9,0.3 -0.15,-2.35 -2.05,-4.1 -2.25,-2.05 -5.55,-2.2 z" />
        <path
           style="fill:#2ecc71;stroke:none"
           id="path2537"
           d="m 376,535 q -0.15,2.45 3.05,2.6 l 37.35,2.1 q 3.3,0.2 3.4,-2.25 -12,-3.6 -27.9,-4.65 -3.8,-0.25 -7.9,-0.3 -4,0 -8,2.5 z" />
      </g>
    </g>
    <g
       transform="translate(-484.88116,-568.48747)"
       id="g3512">
      <g
         id="use3510">
        <path
           style="fill:#ffe0b1;stroke:none"
           id="path2541"
           d="m 411.6,542.95 q -1.3,-1.1 -3.1,-1.1 -1.85,0 -3.2,1.1 -1.3,1.2 -1.3,3 0,1.6 1.3,2.7 1.35,1.25 3.2,1.25 1.8,0 3.1,-1.25 1.3,-1.05 1.3,-2.7 v -0.15 q 0,-1.65 -1.3,-2.85 z" />
      </g>
    </g>
  </g>
</svg>
