<?xml version="1.0" encoding="UTF-8" standalone="no"?>
<svg
   xmlns:dc="http://purl.org/dc/elements/1.1/"
   xmlns:cc="http://creativecommons.org/ns#"
   xmlns:rdf="http://www.w3.org/1999/02/22-rdf-syntax-ns#"
   xmlns:svg="http://www.w3.org/2000/svg"
   xmlns="http://www.w3.org/2000/svg"
   width="64px"
   height="64px"
   viewBox="0 0 64 64"
   version="1.1"
   id="SVGRoot">
  <defs
     id="defs6023" />
  <metadata
     id="metadata6026">
    <rdf:RDF>
      <cc:Work
         rdf:about="">
        <dc:format>image/svg+xml</dc:format>
        <dc:type
           rdf:resource="http://purl.org/dc/dcmitype/StillImage" />
        <dc:title></dc:title>
      </cc:Work>
    </rdf:RDF>
  </metadata>
  <g
     transform="translate(113.62712,51.52542)"
     id="g2003">
    <g
       transform="translate(-257.25444,-565.50442)"
       id="g3344">
      <g
         id="use3342">
        <path
           style="fill:#333333;stroke:none"
           id="path1914"
           d="m 164.15,570.1 q 0.05,-0.05 0.1,-0.15 1.05,-1.85 0.2,-4 -0.8,-2.2 -3,-3.45 -2.2,-1.3 -4.5,-0.9 -2.35,0.35 -3.4,2.2 -0.05,0.1 -0.1,0.15 -0.05,0.15 -0.1,0.2 -0.35,0.85 0.5,2.25 0.1,0.1 0.2,0.2 0.3,0.4 0.7,0.9 1.1,1.1 2.65,2 1.6,0.9 3,1.25 0.6,0.1 1.15,0.2 1,0 1.7,-0.15 0.5,-0.2 0.8,-0.5 0.05,-0.05 0.1,-0.2 z" />
      </g>
    </g>
    <g
       transform="translate(-257.25444,-565.50442)"
       id="g3348">
      <g
         id="use3346">
        <path
           style="fill:#333333;stroke:none"
           id="path1918"
           d="m 192.8,563.75 q -1.05,-1.85 -3.4,-2.2 -2.3,-0.4 -4.5,0.85 -2.2,1.3 -3,3.5 -0.85,2.15 0.2,4 0.05,0.1 0.1,0.15 0.05,0.15 0.1,0.2 0.55,0.75 2.2,0.65 0.1,0 0.3,0 0.5,-0.1 1.1,-0.2 1.5,-0.4 3.05,-1.3 1.6,-0.9 2.6,-1.95 0.4,-0.5 0.75,-0.9 0.5,-0.9 0.7,-1.55 0.1,-0.5 0,-0.9 -0.05,-0.05 -0.1,-0.2 -0.05,-0.05 -0.1,-0.15 z" />
      </g>
    </g>
    <g
       transform="translate(-257.25444,-565.50442)"
       id="g3352">
      <g
         id="use3350">
        <path
           style="fill:#2ecc71;stroke:none"
           id="path1922"
           d="m 189.5,559.05 q -0.35,-5.1 -3.2,-7.65 h -11.85 q 3.2,7.65 15.05,7.65 z" />
        <path
           style="fill:#e74c3c;stroke:none"
           id="path1924"
           d="m 189.2,564 q 0.05,-0.2 0.1,-0.4 0,-0.15 0.05,-0.35 0.05,-0.45 0.15,-0.95 v -0.05 q 0.1,-1.7 0,-3.2 -11.85,0 -15.05,-7.65 h -15 q -3.65,3.55 -3.1,10.9 0.05,0.65 0.2,1.3 0.05,0.45 0.15,0.75 0.15,0.55 0.4,0.95 1,1.65 3.5,1.65 h 24.5 q 3.4,0 4.1,-2.95 z" />
      </g>
    </g>
    <g
       transform="translate(-257.25444,-565.50442)"
       id="g3356">
      <g
         id="use3354">
        <path
           style="fill:#2ecc71;stroke:none"
           id="path1928"
           d="m 167.25,552.3 q -1.15,-0.35 -2.55,-0.1 -0.45,0.05 -0.8,0.2 -2.2,0.95 -3.45,3.7 -1.15,3.25 -0.1,3.45 1.2,0.15 3.15,1.2 1.9,1 3.15,2.05 1.2,1.05 2.1,-0.2 0.15,-0.3 0.35,-0.5 2.1,-3.35 1.85,-5.85 -0.55,-2 -2.15,-3.2 -0.8,-0.55 -1.55,-0.75 z" />
      </g>
    </g>
    <g
       transform="translate(-257.25444,-565.50442)"
       id="g3360">
      <g
         id="use3358">
        <path
           style="fill:#ffe0b1;stroke:none"
           id="path1932"
           d="m 163.9,564.6 q 2.2,0.1 3.9,-0.95 1.5,-0.85 1.5,-2.1 0.05,-0.05 0,-0.1 0,-0.1 0.05,-0.15 -0.05,-0.3 -0.1,-0.65 -0.05,-1.9 -1.4,-3.2 -1.7,-1.75 -4,-1.75 -1.05,0 -1.75,0.35 -1.15,0.4 -2.15,1.35 -1.4,1.4 -1.5,3.3 0,0.25 0,0.55 -0.05,0.2 0,0.3 0.05,1.35 1.6,2.15 1.55,1 3.85,0.9 z" />
      </g>
    </g>
    <g
       transform="translate(-257.25444,-565.50442)"
       id="g3364">
      <g
         id="use3362">
        <path
           style="fill:#694c39;stroke:none"
           id="path1936"
           d="m 155.7,533.6 q -0.5,3.2 -0.65,6.4 -0.05,1.55 0,3.15 0.05,3.7 0.65,7.35 0,0.05 0,0.1 16.4,-2.1 14.7,-20.8 h -10.65 q -1.9,0 -2.95,1.1 -0.9,0.95 -1.1,2.7 z" />
        <path
           style="fill:#ffe0b1;stroke:none"
           id="path1938"
           d="m 189.05,539.35 q -0.2,-2.9 -0.55,-5.85 -0.25,-1.65 -1.1,-2.6 -1.05,-1.1 -3.1,-1.1 h -13.9 q 1.7,18.7 -14.7,20.8 0.05,0.4 0.15,0.7 0.15,0.65 0.4,1.1 1,1.8 3.5,1.8 h 24.55 q 3.45,0 4.15,-3.25 0.05,-0.25 0.1,-0.45 0,-0.2 0.05,-0.4 0.4,-3.1 0.5,-6.35 0,-0.3 0,-0.6 0.05,-1.9 -0.05,-3.8 z" />
      </g>
    </g>
    <g
       transform="translate(-257.25444,-565.50442)"
       id="g3368">
      <g
         id="use3366">
        <path
           style="fill:#694c39;stroke:none"
           id="path1942"
           d="m 176.65,541.75 q -0.6,0.8 -0.6,2.1 0,1.35 0.6,2.15 0.6,0.9 1.4,0.9 0.85,0 1.4,-0.9 0.6,-0.8 0.6,-2.15 0,-1.3 -0.6,-2.1 -0.55,-0.9 -1.4,-0.9 -0.8,0 -1.4,0.9 z" />
      </g>
    </g>
    <g
       transform="translate(-257.25444,-565.50442)"
       id="g3372">
      <g
         id="use3370">
        <path
           style="fill:#ffe0b1;stroke:none"
           id="path1946"
           d="m 186.05,547.8 q 0,0.45 0.9,0.8 0.9,0.3 2.15,0.3 1.2,0 2.15,-0.3 0.85,-0.35 0.85,-0.8 0,-1.15 -0.85,-2 -0.95,-0.9 -2.15,-0.9 -1.25,0 -2.15,0.9 -0.8,0.85 -0.9,2 z" />
      </g>
    </g>
    <g
       transform="translate(-257.25444,-565.50442)"
       id="g3376">
      <g
         id="use3374">
        <path
           style="fill:#694c39;stroke:none"
           id="path1950"
           d="m 186.05,552.9 q 0.3,0 0.6,0 1.15,-0.05 2,-0.5 0.9,-0.45 0.9,-1.2 0,-1.75 -0.9,-3 -0.85,-1.15 -2,-1.25 -0.3,-0.05 -0.6,-0.05 -2.85,0 -4.95,1.3 -1.85,1.25 -2.05,3 0,0.75 2.05,1.2 2.1,0.5 4.95,0.5 z" />
      </g>
    </g>
    <g
       transform="translate(-257.25444,-565.50442)"
       id="g3380">
      <g
         id="use3378">
        <path
           style="fill:#ffffff;stroke:none"
           id="path1954"
           d="m 189.7,526.5 q -3.3,0.15 -5.55,2.2 -1.9,1.75 -2.05,4.1 3.8,-0.25 7.9,-0.3 z" />
        <path
           style="fill:#28b162;stroke:none"
           id="path1956"
           d="m 184.15,528.7 q 2.25,-2.05 5.55,-2.2 l -0.05,-0.8 h -0.05 q -0.8,-3.95 -5.5,-4.3 -7.25,-0.7 -14.3,-0.15 -16.7,2.2 -15.75,13.85 0,0.1 0,0.2 l 0.15,2.15 q 12,-3.6 27.9,-4.65 0.15,-2.35 2.05,-4.1 z" />
        <path
           style="fill:#2ecc71;stroke:none"
           id="path1958"
           d="m 198,535 q -4,-2.5 -8,-2.5 -4.1,0.05 -7.9,0.3 -15.9,1.05 -27.9,4.65 0.1,2.45 3.4,2.25 l 37.35,-2.1 q 3.2,-0.15 3.05,-2.6 z" />
      </g>
    </g>
    <g
       transform="translate(-257.25444,-565.50442)"
       id="g3384">
      <g
         id="use3382">
        <path
           style="fill:#ffe0b1;stroke:none"
           id="path1962"
           d="m 165.5,541.85 q -1.8,0 -3.1,1.1 -1.3,1.2 -1.3,2.85 v 0.15 q 0,1.65 1.3,2.7 1.3,1.25 3.1,1.25 1.85,0 3.2,-1.25 1.3,-1.1 1.3,-2.7 0,-1.8 -1.3,-3 -1.35,-1.1 -3.2,-1.1 z" />
      </g>
    </g>
  </g>
</svg>
