<?xml version="1.0" encoding="UTF-8" standalone="no"?>
<svg
   xmlns:dc="http://purl.org/dc/elements/1.1/"
   xmlns:cc="http://creativecommons.org/ns#"
   xmlns:rdf="http://www.w3.org/1999/02/22-rdf-syntax-ns#"
   xmlns:svg="http://www.w3.org/2000/svg"
   xmlns="http://www.w3.org/2000/svg"
   width="64px"
   height="64px"
   viewBox="0 0 64 64"
   version="1.1"
   id="SVGRoot">
  <defs
     id="defs6023" />
  <metadata
     id="metadata6026">
    <rdf:RDF>
      <cc:Work
         rdf:about="">
        <dc:format>image/svg+xml</dc:format>
        <dc:type
           rdf:resource="http://purl.org/dc/dcmitype/StillImage" />
        <dc:title></dc:title>
      </cc:Work>
    </rdf:RDF>
  </metadata>
  <g
     transform="translate(110.64406,52.61017)"
     id="g2187">
    <g
       transform="translate(-328.27138,-566.58917)"
       id="g3428">
      <g
         id="use3426">
        <path
           style="fill:#333333;stroke:none"
           id="path2098"
           d="m 235.45,562.5 q -2.2,-1.3 -4.5,-0.9 -2.35,0.35 -3.4,2.2 -0.05,0.1 -0.1,0.15 -0.05,0.15 -0.1,0.2 -0.35,0.85 0.5,2.25 0.1,0.1 0.2,0.2 0.3,0.4 0.7,0.9 1.1,1.1 2.65,2 1.6,0.9 3,1.25 0.6,0.1 1.15,0.2 1,0 1.7,-0.15 0.5,-0.2 0.8,-0.5 0.05,-0.05 0.1,-0.2 0.05,-0.05 0.1,-0.15 1.05,-1.85 0.2,-4 -0.8,-2.2 -3,-3.45 z" />
      </g>
    </g>
    <g
       transform="translate(-328.27138,-566.58917)"
       id="g3432">
      <g
         id="use3430">
        <path
           style="fill:#333333;stroke:none"
           id="path2102"
           d="m 266.8,563.75 q -1.05,-1.85 -3.4,-2.2 -2.3,-0.4 -4.5,0.85 -2.2,1.3 -3,3.5 -0.85,2.15 0.2,4 0.05,0.1 0.1,0.15 0.05,0.15 0.1,0.2 0.55,0.75 2.2,0.65 0.1,0 0.3,0 0.5,-0.1 1.1,-0.2 1.5,-0.4 3.05,-1.3 1.6,-0.9 2.6,-1.95 0.4,-0.5 0.75,-0.9 0.5,-0.9 0.7,-1.55 0.1,-0.5 0,-0.9 -0.05,-0.05 -0.1,-0.2 -0.05,-0.05 -0.1,-0.15 z" />
      </g>
    </g>
    <g
       transform="translate(-328.27138,-566.58917)"
       id="g3436">
      <g
         id="use3434">
        <path
           style="fill:#2ecc71;stroke:none"
           id="path2106"
           d="m 260.3,551.4 h -11.85 q 3.2,7.65 15.05,7.65 -0.35,-5.1 -3.2,-7.65 z" />
        <path
           style="fill:#e74c3c;stroke:none"
           id="path2108"
           d="m 230.55,563.6 q 0.05,0.45 0.15,0.75 0.15,0.55 0.4,0.95 1,1.65 3.5,1.65 h 24.5 q 3.4,0 4.1,-2.95 0.05,-0.2 0.1,-0.4 0,-0.15 0.05,-0.35 0.05,-0.45 0.15,-0.95 v -0.05 q 0.1,-1.7 0,-3.2 -11.85,0 -15.05,-7.65 h -15 q -3.65,3.55 -3.1,10.9 0.05,0.65 0.2,1.3 z" />
      </g>
    </g>
    <g
       transform="translate(-328.27138,-566.58917)"
       id="g3440">
      <g
         id="use3438">
        <path
           style="fill:#2ecc71;stroke:none"
           id="path2112"
           d="m 241.2,552.35 q -0.9,0.45 -1.4,0.95 -0.9,0.85 -1.4,2.2 -0.15,0.35 -0.2,0.7 -0.3,2.45 1.5,4.9 2.25,2.6 2.9,1.8 0.75,-0.95 2.6,-2.15 1.85,-1.1 3.35,-1.65 1.55,-0.55 0.95,-1.95 -0.2,-0.3 -0.3,-0.55 -1.9,-3.5 -4.15,-4.5 -2,-0.55 -3.85,0.25 z" />
      </g>
    </g>
    <g
       transform="translate(-328.27138,-566.58917)"
       id="g3444">
      <g
         id="use3442">
        <path
           style="fill:#ffe0b1;stroke:none"
           id="path2116"
           d="m 240.55,562.2 q 0.45,1.85 2.1,2.95 0.25,0.1 0.5,0.25 0.1,0.15 0.25,0.15 1.15,0.65 2.65,-0.3 1.6,-0.85 2.7,-2.9 1.2,-1.85 1.15,-3.85 -0.05,-1.75 -1.05,-2.35 -0.05,-0.05 -0.1,-0.05 -0.1,-0.05 -0.1,-0.15 -0.3,-0.05 -0.6,-0.25 -1.7,-0.85 -3.5,-0.35 -2.4,0.65 -3.55,2.6 -0.45,0.9 -0.55,1.65 -0.25,1.25 0.1,2.6 z" />
      </g>
    </g>
    <g
       transform="translate(-328.27138,-566.58917)"
       id="g3448">
      <g
         id="use3446">
        <path
           style="fill:#ffe0b1;stroke:none"
           id="path2120"
           d="m 229.85,551.3 q 0.15,0.65 0.4,1.1 1,1.8 3.5,1.8 h 24.55 q 3.45,0 4.15,-3.25 0.05,-0.25 0.1,-0.45 0,-0.2 0.05,-0.4 0.4,-3.1 0.5,-6.35 0,-0.3 0,-0.6 0.05,-1.9 -0.05,-3.8 -0.2,-2.9 -0.55,-5.85 -0.25,-1.65 -1.1,-2.6 -1.05,-1.1 -3.1,-1.1 h -13.9 q 1.7,18.7 -14.7,20.8 0.05,0.4 0.15,0.7 z" />
        <path
           style="fill:#694c39;stroke:none"
           id="path2122"
           d="m 229.7,533.6 q -0.5,3.2 -0.65,6.4 -0.05,1.55 0,3.15 0.05,3.7 0.65,7.35 0,0.05 0,0.1 16.4,-2.1 14.7,-20.8 h -10.65 q -1.9,0 -2.95,1.1 -0.9,0.95 -1.1,2.7 z" />
      </g>
    </g>
    <g
       transform="translate(-328.27138,-566.58917)"
       id="g3452">
      <g
         id="use3450">
        <path
           style="fill:#694c39;stroke:none"
           id="path2126"
           d="m 250.65,541.75 q -0.6,0.8 -0.6,2.1 0,1.35 0.6,2.15 0.6,0.9 1.4,0.9 0.85,0 1.4,-0.9 0.6,-0.8 0.6,-2.15 0,-1.3 -0.6,-2.1 -0.55,-0.9 -1.4,-0.9 -0.8,0 -1.4,0.9 z" />
      </g>
    </g>
    <g
       transform="translate(-328.27138,-566.58917)"
       id="g3456">
      <g
         id="use3454">
        <path
           style="fill:#ffe0b1;stroke:none"
           id="path2130"
           d="m 260.05,547.8 q 0,0.45 0.9,0.8 0.9,0.3 2.15,0.3 1.2,0 2.15,-0.3 0.85,-0.35 0.85,-0.8 0,-1.15 -0.85,-2 -0.95,-0.9 -2.15,-0.9 -1.25,0 -2.15,0.9 -0.8,0.85 -0.9,2 z" />
      </g>
    </g>
    <g
       transform="translate(-328.27138,-566.58917)"
       id="g3460">
      <g
         id="use3458">
        <path
           style="fill:#694c39;stroke:none"
           id="path2134"
           d="m 253.05,551.2 q 0,0.75 2.05,1.2 2.1,0.5 4.95,0.5 0.3,0 0.6,0 1.15,-0.05 2,-0.5 0.9,-0.45 0.9,-1.2 0,-1.75 -0.9,-3 -0.85,-1.15 -2,-1.25 -0.3,-0.05 -0.6,-0.05 -2.85,0 -4.95,1.3 -1.85,1.25 -2.05,3 z" />
      </g>
    </g>
    <g
       transform="translate(-328.27138,-566.58917)"
       id="g3464">
      <g
         id="use3462">
        <path
           style="fill:#ffffff;stroke:none"
           id="path2138"
           d="m 258.15,528.7 q -1.9,1.75 -2.05,4.1 3.8,-0.25 7.9,-0.3 l -0.3,-6 q -3.3,0.15 -5.55,2.2 z" />
        <path
           style="fill:#2ecc71;stroke:none"
           id="path2140"
           d="m 228.2,537.45 q 0.1,2.45 3.4,2.25 l 37.35,-2.1 q 3.2,-0.15 3.05,-2.6 -4,-2.5 -8,-2.5 -4.1,0.05 -7.9,0.3 -15.9,1.05 -27.9,4.65 z" />
        <path
           style="fill:#28b162;stroke:none"
           id="path2142"
           d="m 228.05,535.3 0.15,2.15 q 12,-3.6 27.9,-4.65 0.15,-2.35 2.05,-4.1 2.25,-2.05 5.55,-2.2 l -0.05,-0.8 h -0.05 q -0.8,-3.95 -5.5,-4.3 -7.25,-0.7 -14.3,-0.15 -16.7,2.2 -15.75,13.85 0,0.1 0,0.2 z" />
      </g>
    </g>
    <g
       transform="translate(-328.27138,-566.58917)"
       id="g3468">
      <g
         id="use3466">
        <path
           style="fill:#ffe0b1;stroke:none"
           id="path2146"
           d="m 239.5,541.85 q -1.8,0 -3.1,1.1 -1.3,1.2 -1.3,2.85 v 0.15 q 0,1.65 1.3,2.7 1.3,1.25 3.1,1.25 1.85,0 3.2,-1.25 1.3,-1.1 1.3,-2.7 0,-1.8 -1.3,-3 -1.35,-1.1 -3.2,-1.1 z" />
      </g>
    </g>
  </g>
</svg>
