<?xml version="1.0" encoding="UTF-8" standalone="no"?>
<svg
   xmlns:dc="http://purl.org/dc/elements/1.1/"
   xmlns:cc="http://creativecommons.org/ns#"
   xmlns:rdf="http://www.w3.org/1999/02/22-rdf-syntax-ns#"
   xmlns:svg="http://www.w3.org/2000/svg"
   xmlns="http://www.w3.org/2000/svg"
   width="64px"
   height="64px"
   viewBox="0 0 64 64"
   version="1.1"
   id="SVGRoot">
  <defs
     id="defs6023" />
  <metadata
     id="metadata6026">
    <rdf:RDF>
      <cc:Work
         rdf:about="">
        <dc:format>image/svg+xml</dc:format>
        <dc:type
           rdf:resource="http://purl.org/dc/dcmitype/StillImage" />
        <dc:title></dc:title>
      </cc:Work>
    </rdf:RDF>
  </metadata>
  <g
     transform="translate(104.13559,53.9661)"
     id="g1780">
    <g
       transform="translate(-174.13838,-567.9701)"
       id="g3388">
      <g
         id="use3386">
        <path
           style="fill:#e74c3c;stroke:none"
           id="path1698"
           d="m 115.3,563.6 q 0,-0.15 0.05,-0.35 0.05,-0.45 0.15,-0.95 v -0.05 q 0.1,-1.7 0,-3.2 -11.85,0 -15.05,-7.65 h -15 q -3.65,3.55 -3.1,10.9 0.05,0.65 0.2,1.3 0.05,0.45 0.15,0.75 0.15,0.55 0.4,0.95 1,1.65 3.5,1.65 h 24.5 q 3.4,0 4.1,-2.95 0.05,-0.2 0.1,-0.4 z" />
        <path
           style="fill:#2ecc71;stroke:none"
           id="path1700"
           d="m 115.5,559.05 q -0.35,-5.1 -3.2,-7.65 h -11.85 q 3.2,7.65 15.05,7.65 z" />
      </g>
    </g>
    <g
       transform="translate(-174.13838,-567.9701)"
       id="g3392">
      <g
         id="use3390">
        <path
           style="fill:#333333;stroke:none"
           id="path1704"
           d="m 104.05,568 q 0,-2.1 -1.8,-3.55 -1.8,-1.5 -4.35,-1.5 -2.55,0 -4.35,1.5 -1.85,1.45 -1.85,3.55 0,0.15 0.05,0.2 0,0.15 0,0.25 0.1,0.9 1.55,1.65 0.1,0.05 0.25,0.1 0.5,0.2 1.05,0.4 1.5,0.4 3.3,0.4 1.85,0 3.25,-0.4 0.55,-0.2 1.1,-0.4 0.85,-0.5 1.35,-0.95 0.35,-0.4 0.45,-0.8 0,-0.1 0,-0.25 0,-0.05 0,-0.2 z" />
      </g>
    </g>
    <g
       transform="translate(-174.13838,-567.9701)"
       id="g3396">
      <g
         id="use3394">
        <path
           style="fill:#2ecc71;stroke:none"
           id="path1708"
           d="m 97.35,554.15 q -1.45,-1.5 -3.45,-1.7 -1,-0.1 -1.7,0.1 -1.2,0.3 -2.3,1.2 -0.3,0.25 -0.55,0.55 -1.45,1.95 -1.15,4.95 0.65,3.4 1.65,3.05 1.1,-0.45 3.3,-0.55 2.15,-0.1 3.75,0.2 1.6,0.3 1.75,-1.2 0,-0.35 0.05,-0.65 0.1,-3.95 -1.35,-5.95 z" />
      </g>
    </g>
    <g
       transform="translate(-174.13838,-567.9701)"
       id="g3400">
      <g
         id="use3398">
        <path
           style="fill:#ffe0b1;stroke:none"
           id="path1712"
           d="m 88.4,560.65 q -0.5,1.85 0.35,3.6 0.15,0.2 0.3,0.5 0.05,0.15 0.15,0.2 0.7,1.15 2.45,1.1 1.85,0.05 3.8,-1.15 1.95,-1.05 2.9,-2.75 0.85,-1.55 0.25,-2.6 0,-0.1 -0.05,-0.1 -0.05,-0.1 0,-0.15 -0.25,-0.25 -0.4,-0.5 -1.05,-1.65 -2.85,-2.1 -2.4,-0.65 -4.35,0.5 -0.9,0.55 -1.35,1.15 -0.8,0.95 -1.2,2.3 z" />
      </g>
    </g>
    <g
       transform="translate(-174.13838,-567.9701)"
       id="g3404">
      <g
         id="use3402">
        <path
           style="fill:#ffe0b1;stroke:none"
           id="path1716"
           d="m 113.4,530.9 q -1.05,-1.1 -3.1,-1.1 H 96.4 q 1.7,18.7 -14.7,20.8 0.05,0.4 0.15,0.7 0.15,0.65 0.4,1.1 1,1.8 3.5,1.8 h 24.55 q 3.45,0 4.15,-3.25 0.05,-0.25 0.1,-0.45 0,-0.2 0.05,-0.4 0.4,-3.1 0.5,-6.35 0,-0.3 0,-0.6 0.05,-1.9 -0.05,-3.8 -0.2,-2.9 -0.55,-5.85 -0.25,-1.65 -1.1,-2.6 z" />
        <path
           style="fill:#694c39;stroke:none"
           id="path1718"
           d="M 96.4,529.8 H 85.75 q -1.9,0 -2.95,1.1 -0.9,0.95 -1.1,2.7 -0.5,3.2 -0.65,6.4 -0.05,1.55 0,3.15 0.05,3.7 0.65,7.35 0,0.05 0,0.1 16.4,-2.1 14.7,-20.8 z" />
      </g>
    </g>
    <g
       transform="translate(-174.13838,-567.9701)"
       id="g3408">
      <g
         id="use3406">
        <path
           style="fill:#694c39;stroke:none"
           id="path1722"
           d="m 106.05,543.85 q 0,-1.3 -0.6,-2.1 -0.55,-0.9 -1.4,-0.9 -0.8,0 -1.4,0.9 -0.6,0.8 -0.6,2.1 0,1.35 0.6,2.15 0.6,0.9 1.4,0.9 0.85,0 1.4,-0.9 0.6,-0.8 0.6,-2.15 z" />
      </g>
    </g>
    <g
       transform="translate(-174.13838,-567.9701)"
       id="g3412">
      <g
         id="use3410">
        <path
           style="fill:#ffe0b1;stroke:none"
           id="path1726"
           d="m 112.05,547.8 q 0,0.45 0.9,0.8 0.9,0.3 2.15,0.3 1.2,0 2.15,-0.3 0.85,-0.35 0.85,-0.8 0,-1.15 -0.85,-2 -0.95,-0.9 -2.15,-0.9 -1.25,0 -2.15,0.9 -0.8,0.85 -0.9,2 z" />
      </g>
    </g>
    <g
       transform="translate(-174.13838,-567.9701)"
       id="g3416">
      <g
         id="use3414">
        <path
           style="fill:#694c39;stroke:none"
           id="path1730"
           d="m 112.65,546.95 q -0.3,-0.05 -0.6,-0.05 -2.85,0 -4.95,1.3 -1.85,1.25 -2.05,3 0,0.75 2.05,1.2 2.1,0.5 4.95,0.5 0.3,0 0.6,0 1.15,-0.05 2,-0.5 0.9,-0.45 0.9,-1.2 0,-1.75 -0.9,-3 -0.85,-1.15 -2,-1.25 z" />
      </g>
    </g>
    <g
       transform="translate(-174.13838,-567.9701)"
       id="g3420">
      <g
         id="use3418">
        <path
           style="fill:#2ecc71;stroke:none"
           id="path1734"
           d="m 116,532.5 q -4.1,0.05 -7.9,0.3 -15.9,1.05 -27.9,4.65 0.1,2.45 3.4,2.25 l 37.35,-2.1 q 3.2,-0.15 3.05,-2.6 -4,-2.5 -8,-2.5 z" />
        <path
           style="fill:#ffffff;stroke:none"
           id="path1736"
           d="m 115.7,526.5 q -3.3,0.15 -5.55,2.2 -1.9,1.75 -2.05,4.1 3.8,-0.25 7.9,-0.3 z" />
        <path
           style="fill:#28b162;stroke:none"
           id="path1738"
           d="m 80.05,535.3 0.15,2.15 q 12,-3.6 27.9,-4.65 0.15,-2.35 2.05,-4.1 2.25,-2.05 5.55,-2.2 l -0.05,-0.8 h -0.05 q -0.8,-3.95 -5.5,-4.3 -7.25,-0.7 -14.3,-0.15 -16.7,2.2 -15.75,13.85 0,0.1 0,0.2 z" />
      </g>
    </g>
    <g
       transform="translate(-174.13838,-567.9701)"
       id="g3424">
      <g
         id="use3422">
        <path
           style="fill:#ffe0b1;stroke:none"
           id="path1742"
           d="m 91.5,541.85 q -1.8,0 -3.1,1.1 -1.3,1.2 -1.3,2.85 v 0.15 q 0,1.65 1.3,2.7 1.3,1.25 3.1,1.25 1.85,0 3.2,-1.25 1.3,-1.1 1.3,-2.7 0,-1.8 -1.3,-3 -1.35,-1.1 -3.2,-1.1 z" />
      </g>
    </g>
  </g>
</svg>
