<?xml version="1.0" encoding="UTF-8" standalone="no"?>
<svg
   xmlns:dc="http://purl.org/dc/elements/1.1/"
   xmlns:cc="http://creativecommons.org/ns#"
   xmlns:rdf="http://www.w3.org/1999/02/22-rdf-syntax-ns#"
   xmlns:svg="http://www.w3.org/2000/svg"
   xmlns="http://www.w3.org/2000/svg"
   width="64px"
   height="64px"
   viewBox="0 0 64 64"
   version="1.1"
   id="SVGRoot">
  <defs
     id="defs6023" />
  <metadata
     id="metadata6026">
    <rdf:RDF>
      <cc:Work
         rdf:about="">
        <dc:format>image/svg+xml</dc:format>
        <dc:type
           rdf:resource="http://purl.org/dc/dcmitype/StillImage" />
        <dc:title></dc:title>
      </cc:Work>
    </rdf:RDF>
  </metadata>
  <g
     transform="translate(112.54237,54.237291)"
     id="g1225">
    <g
       transform="translate(-404.54237,-420.24346)"
       id="g3080">
      <g
         id="use3078">
        <path
           style="fill:#ffe0b1;stroke:none"
           id="path1144"
           d="m 312.9,409.25 q -0.05,-0.05 -0.1,-0.1 -0.3,-0.15 -0.55,-0.25 -1.75,-0.85 -3.55,-0.35 -2.35,0.65 -3.5,2.6 -0.5,0.85 -0.6,1.65 -0.2,1.2 0.15,2.55 0.5,1.85 2.05,2.95 0.25,0.15 0.55,0.3 0.1,0.1 0.2,0.15 1.15,0.6 2.65,-0.3 1.65,-0.9 2.75,-2.9 1.15,-1.9 1.15,-3.85 -0.05,-1.75 -1.1,-2.4 -0.05,-0.05 -0.1,-0.05 z" />
        <path
           style="fill:#2ecc71;stroke:none"
           id="path1146"
           d="m 308.45,405 q -1.6,0.3 -2.7,1.45 -1.75,1.7 -1.75,3.95 0,1.3 0.6,2.4 0.1,-0.8 0.6,-1.65 1.15,-1.95 3.5,-2.6 1.8,-0.5 3.55,0.35 0.25,0.1 0.55,0.25 -4.05,-2.8 -4.35,-4.15 z" />
      </g>
    </g>
    <g
       transform="translate(-404.54237,-420.24346)"
       id="g3084">
      <g
         id="use3082">
        <path
           style="fill:#ffe0b1;stroke:none"
           id="path1150"
           d="m 343.4,412.8 q -0.15,-0.8 -0.6,-1.65 -1.15,-1.95 -3.5,-2.6 -1.8,-0.5 -3.55,0.35 -0.25,0.1 -0.55,0.25 -0.05,0.05 -0.1,0.1 -0.05,0 -0.1,0.05 -1.05,0.65 -1.1,2.4 0,1.95 1.15,3.85 1.1,2 2.75,2.9 1.5,0.9 2.65,0.3 0.1,-0.05 0.2,-0.15 0.3,-0.15 0.55,-0.3 1.55,-1.1 2.05,-2.95 0.35,-1.35 0.15,-2.55 z" />
        <path
           style="fill:#2ecc71;stroke:none"
           id="path1152"
           d="m 342.25,406.45 q -1.1,-1.15 -2.7,-1.45 -0.3,1.35 -4.35,4.15 0.3,-0.15 0.55,-0.25 1.75,-0.85 3.55,-0.35 2.35,0.65 3.5,2.6 0.45,0.85 0.6,1.65 0.6,-1.1 0.6,-2.4 0,-2.25 -1.75,-3.95 z" />
      </g>
    </g>
    <g
       transform="translate(-404.54237,-420.24346)"
       id="g3088">
      <g
         id="use3086">
        <path
           style="fill:#333333;stroke:none"
           id="path1156"
           d="m 320.35,420.05 q 0,-2.1 -1.85,-3.55 -1.75,-1.5 -4.3,-1.5 -2.55,0 -4.4,1.5 -1.8,1.45 -1.8,3.55 0,0.15 0.05,0.2 0,0.15 0,0.25 0.1,0.9 1.55,1.6 0.1,0.05 0.2,0.1 0.5,0.2 1.1,0.4 1.5,0.4 3.3,0.4 1.8,0 3.25,-0.4 0.55,-0.2 1.05,-0.4 0.9,-0.45 1.4,-0.9 0.35,-0.4 0.45,-0.8 0,-0.1 0,-0.25 0,-0.05 0,-0.2 z" />
      </g>
    </g>
    <g
       transform="translate(-404.54237,-420.24346)"
       id="g3092">
      <g
         id="use3090">
        <path
           style="fill:#333333;stroke:none"
           id="path1160"
           d="m 340,420.05 q 0,-2.1 -1.8,-3.55 -1.8,-1.5 -4.35,-1.5 -2.55,0 -4.35,1.5 -1.85,1.45 -1.85,3.55 0,0.15 0.05,0.2 0,0.15 0,0.25 0.1,0.9 1.55,1.6 0.1,0.05 0.25,0.1 0.5,0.2 1.05,0.4 1.5,0.4 3.3,0.4 1.85,0 3.25,-0.4 0.55,-0.2 1.1,-0.4 0.85,-0.45 1.35,-0.9 0.35,-0.4 0.45,-0.8 0,-0.1 0,-0.25 0,-0.05 0,-0.2 z" />
      </g>
    </g>
    <g
       transform="translate(-404.54237,-420.24346)"
       id="g3096">
      <g
         id="use3094">
        <path
           style="fill:#e74c3c;stroke:none"
           id="path1164"
           d="m 307.5,414.35 q 0.05,0.65 0.2,1.3 0.05,0.45 0.15,0.75 0.15,0.55 0.4,0.95 1,1.65 3.5,1.65 h 6.05 q 0.2,-0.15 0.45,-0.35 2.35,-1.4 5.75,-1.4 3.4,0 5.75,1.4 0.2,0.2 0.45,0.35 h 6.05 q 3.4,0 4.1,-2.95 0.05,-0.2 0.1,-0.4 0,-0.15 0.05,-0.35 0.05,-0.45 0.15,-0.95 v -0.05 q 0.5,-7.55 -3.2,-10.85 H 310.6 q -3.65,3.55 -3.1,10.9 m 4.95,1.5 q -0.95,-0.95 -0.95,-2.3 v -1.25 h 6.5 v 1.25 q 0,1.35 -0.95,2.3 -0.95,0.95 -2.3,0.95 -1.35,0 -2.3,-0.95 m 18.5,0 Q 330,414.9 330,413.55 v -1.25 h 6.5 v 1.25 q 0,1.35 -0.95,2.3 -0.95,0.95 -2.3,0.95 -1.35,0 -2.3,-0.95 z" />
        <path
           style="fill:#cd4335;stroke:none"
           id="path1166"
           d="m 330,413.55 q 0,1.35 0.95,2.3 0.95,0.95 2.3,0.95 1.35,0 2.3,-0.95 0.95,-0.95 0.95,-2.3 V 412.3 H 330 v 1.25 m -18.5,0 q 0,1.35 0.95,2.3 0.95,0.95 2.3,0.95 1.35,0 2.3,-0.95 0.95,-0.95 0.95,-2.3 v -1.25 h -6.5 z" />
      </g>
    </g>
    <g
       transform="translate(-404.54237,-420.24346)"
       id="g3100">
      <g
         id="use3098">
        <path
           style="fill:#d7bd93;stroke:none"
           id="path1170"
           d="m 310.55,394.1 q -1.3,-1.1 -3.15,-1.1 -1.8,0 -3.1,1.1 -1.3,1.2 -1.3,2.8 v 0.15 q 0,1.65 1.3,2.7 1.3,1.25 3.1,1.25 1.85,0 3.15,-1.25 1.3,-1.1 1.3,-2.7 0,-1.75 -1.3,-2.95 m 33.15,0 q -1.3,-1.1 -3.15,-1.1 -1.85,0 -3.15,1.1 -1.25,1.2 -1.3,2.8 v 0.15 q 0.05,1.65 1.3,2.7 1.3,1.25 3.15,1.25 1.85,0 3.15,-1.25 1.3,-1.1 1.3,-2.7 0,-1.75 -1.3,-2.95 z" />
      </g>
    </g>
    <g
       transform="translate(-404.54237,-420.24346)"
       id="g3104">
      <g
         id="use3102">
        <path
           style="fill:#2ecc71;stroke:none"
           id="path1174"
           d="m 316.25,406.3 q 0.55,1.2 2,2.15 2.35,1.55 5.75,1.55 3.4,0 5.75,-1.55 1.4,-0.95 2,-2.15 z" />
        <path
           style="fill:#ffe0b1;stroke:none"
           id="path1176"
           d="m 311.75,406.3 h 4.5 15.5 4.5 q 3.4,0 4.1,-3.25 0.05,-0.25 0.1,-0.45 0,-0.2 0.05,-0.4 0.25,-1.75 0.35,-3.55 -16.8,4.45 -33.65,0 0.2,2 0.5,3.95 0.05,0.45 0.15,0.8 0.15,0.65 0.4,1.1 1,1.8 3.5,1.8 z" />
        <path
           style="fill:#694c39;stroke:none"
           id="path1178"
           d="m 340.95,391.5 q -0.2,-2.9 -0.55,-5.85 -0.25,-1.6 -1.1,-2.55 -1.05,-1.1 -3.05,-1.1 h -24.5 q -1.9,0 -2.95,1.1 -0.9,0.95 -1.1,2.65 -0.5,3.2 -0.65,6.4 -0.05,1.55 0,3.15 0,1.7 0.15,3.35 16.85,4.45 33.65,0 0.1,-1.35 0.15,-2.75 0,-0.3 0,-0.6 0.05,-1.9 -0.05,-3.8 z" />
      </g>
    </g>
    <g
       transform="translate(-404.54237,-420.24346)"
       id="g3108">
      <g
         id="use3106">
        <path
           style="fill:#28b162;stroke:none"
           id="path1182"
           d="m 341.95,378.6 q -0.55,-3.95 -5.3,-4.6 -12.65,-1.95 -25.25,-0.05 -4.85,0.7 -5.35,4.65 H 306 v 7.4 h 36 v -7.4 z" />
        <path
           style="fill:#24a65b;stroke:none"
           id="path1184"
           d="M 342,388.55 V 386 h -36 v 2.55 q -0.05,2.45 2.65,2.45 h 30.7 q 2.65,0 2.65,-2.45 z" />
      </g>
    </g>
    <g
       transform="translate(-404.54237,-420.24346)"
       id="g3112">
      <g
         id="use3110">
        <path
           style="fill:#694c39;stroke:none"
           id="path1188"
           d="m 327.45,385.2 q -1.4,-1.2 -3.45,-1.2 -2,0 -3.5,1.2 -1.35,1.15 -1.5,2.75 0,0.25 0.15,0.5 0.1,0.25 0.35,0.4 0.25,0.15 0.5,0.15 h 8 q 0.3,0 0.55,-0.15 0.25,-0.15 0.35,-0.4 0.15,-0.25 0.1,-0.55 -0.15,-1.55 -1.55,-2.7 z" />
      </g>
    </g>
  </g>
</svg>
