<?xml version="1.0" encoding="UTF-8" standalone="no"?>
<svg
   xmlns:dc="http://purl.org/dc/elements/1.1/"
   xmlns:cc="http://creativecommons.org/ns#"
   xmlns:rdf="http://www.w3.org/1999/02/22-rdf-syntax-ns#"
   xmlns:svg="http://www.w3.org/2000/svg"
   xmlns="http://www.w3.org/2000/svg"
   id="SVGRoot"
   version="1.1"
   viewBox="0 0 64 64"
   height="64px"
   width="64px">
  <defs
     id="defs6023" />
  <metadata
     id="metadata6026">
    <rdf:RDF>
      <cc:Work
         rdf:about="">
        <dc:format>image/svg+xml</dc:format>
        <dc:type
           rdf:resource="http://purl.org/dc/dcmitype/StillImage" />
        <dc:title></dc:title>
      </cc:Work>
    </rdf:RDF>
  </metadata>
  <g
     id="layer1">
    <g
       transform="translate(107.25,49.500001)"
       id="g7062">
      <g
         transform="translate(-251.25,-415.50617)"
         id="g3168">
        <g
           id="use3166">
          <path
             style="fill:#2ecc71;stroke:none"
             id="path6953"
             d="m 164.25,408.9 q 0.25,0.1 0.55,0.25 -4.05,-2.8 -4.35,-4.15 -1.6,0.3 -2.7,1.45 -1.75,1.7 -1.75,3.95 0,1.3 0.6,2.4 0.1,-0.8 0.6,-1.65 1.15,-1.95 3.5,-2.6 1.8,-0.5 3.55,0.35 z" />
          <path
             style="fill:#ffe0b1;stroke:none"
             id="path6955"
             d="m 164.95,415.55 q 1.15,-1.9 1.15,-3.85 -0.05,-1.75 -1.1,-2.4 -0.05,-0.05 -0.1,-0.05 -0.05,-0.05 -0.1,-0.1 -0.3,-0.15 -0.55,-0.25 -1.75,-0.85 -3.55,-0.35 -2.35,0.65 -3.5,2.6 -0.5,0.85 -0.6,1.65 -0.2,1.2 0.15,2.55 0.5,1.85 2.05,2.95 0.25,0.15 0.55,0.3 0.1,0.1 0.2,0.15 1.15,0.6 2.65,-0.3 1.65,-0.9 2.75,-2.9 z" />
        </g>
      </g>
      <g
         transform="translate(-251.25,-415.50617)"
         id="g3172">
        <g
           id="use3170">
          <path
             style="fill:#333333;stroke:none"
             id="path6959"
             d="m 192,420.05 q 0,-2.1 -1.8,-3.55 -1.8,-1.5 -4.35,-1.5 -2.55,0 -4.35,1.5 -1.85,1.45 -1.85,3.55 0,0.15 0.05,0.2 0,0.15 0,0.25 0.1,0.9 1.55,1.6 0.1,0.05 0.25,0.1 0.5,0.2 1.05,0.4 1.5,0.4 3.3,0.4 1.85,0 3.25,-0.4 0.55,-0.2 1.1,-0.4 0.85,-0.45 1.35,-0.9 0.35,-0.4 0.45,-0.8 0,-0.1 0,-0.25 0,-0.05 0,-0.2 z" />
        </g>
      </g>
      <g
         transform="translate(-251.25,-415.50617)"
         id="g3176">
        <g
           id="use3174">
          <path
             style="fill:#cd4335;stroke:none"
             id="path6963"
             d="m 170.75,414.35 q -0.25,0.25 -0.5,0.55 -1.45,1.9 -2,4.1 h 1.55 q 0.2,-0.15 0.45,-0.35 2.35,-1.4 5.75,-1.4 3.4,0 5.75,1.4 0.2,0.2 0.45,0.35 h 1.55 q -0.6,-2.2 -2,-4.1 -0.25,-0.3 -0.45,-0.55 -2.25,-2.4 -5.3,-2.4 -3.05,0 -5.25,2.4 z" />
          <path
             style="fill:#e74c3c;stroke:none"
             id="path6965"
             d="m 192.65,414.3 q 0.5,-7.55 -3.2,-10.85 H 162.6 q -3.65,3.55 -3.1,10.9 0.05,0.65 0.2,1.3 0.05,0.45 0.15,0.75 0.15,0.55 0.4,0.95 1,1.65 3.5,1.65 h 4.5 q 0.55,-2.2 2,-4.1 0.25,-0.3 0.5,-0.55 2.2,-2.4 5.25,-2.4 3.05,0 5.3,2.4 0.2,0.25 0.45,0.55 1.4,1.9 2,4.1 h 4.5 q 3.4,0 4.1,-2.95 0.05,-0.2 0.1,-0.4 0,-0.15 0.05,-0.35 0.05,-0.45 0.15,-0.95 z" />
        </g>
      </g>
      <g
         transform="translate(-251.25,-415.50617)"
         id="g3180">
        <g
           id="use3178">
          <path
             style="fill:#d7bd93;stroke:none"
             id="path6969"
             d="m 195.7,394.1 q -1.3,-1.1 -3.15,-1.1 -1.85,0 -3.15,1.1 -1.25,1.2 -1.3,2.8 v 0.15 q 0.05,1.65 1.3,2.7 1.3,1.25 3.15,1.25 1.85,0 3.15,-1.25 1.3,-1.1 1.3,-2.7 0,-1.75 -1.3,-2.95 M 159.4,393 q -1.8,0 -3.1,1.1 -1.3,1.2 -1.3,2.8 v 0.15 q 0,1.65 1.3,2.7 1.3,1.25 3.1,1.25 1.85,0 3.15,-1.25 1.3,-1.1 1.3,-2.7 0,-1.75 -1.3,-2.95 -1.3,-1.1 -3.15,-1.1 z" />
        </g>
      </g>
      <g
         transform="translate(-251.25,-415.50617)"
         id="g3184">
        <g
           id="use3182">
          <path
             style="fill:#2ecc71;stroke:none"
             id="path6973"
             d="m 170.25,408.45 q 2.35,1.55 5.75,1.55 3.4,0 5.75,-1.55 1.4,-0.95 2,-2.15 h -15.5 q 0.55,1.2 2,2.15 z" />
          <path
             style="fill:#694c39;stroke:none"
             id="path6975"
             d="m 188.35,383.1 q 0.65,8 4.65,12.2 0.05,-1.9 -0.05,-3.8 -0.2,-2.9 -0.55,-5.85 -0.25,-1.6 -1.1,-2.55 -1.05,-1.1 -3.05,-1.1 0.05,0.6 0.1,1.1 m -28.65,2.65 q -0.5,3.2 -0.65,6.4 -0.05,1.55 0,3.15 4.75,-3.85 4.75,-12.2 -0.05,-0.5 -0.05,-1.1 -1.9,0 -2.95,1.1 -0.9,0.95 -1.1,2.65 z" />
          <path
             style="fill:#ffe0b1;stroke:none"
             id="path6977"
             d="m 163.75,382 q 0,0.6 0.05,1.1 0,8.35 -4.75,12.2 0.05,3.65 0.65,7.3 0.05,0.45 0.15,0.8 0.15,0.65 0.4,1.1 1,1.8 3.5,1.8 h 4.5 15.5 4.5 q 3.4,0 4.1,-3.25 0.05,-0.25 0.1,-0.45 0,-0.2 0.05,-0.4 0.4,-3.1 0.5,-6.3 0,-0.3 0,-0.6 -4,-4.2 -4.65,-12.2 -0.05,-0.5 -0.1,-1.1 z" />
        </g>
      </g>
      <g
         transform="translate(-251.25,-415.50617)"
         id="g3188">
        <g
           id="use3186">
          <path
             style="fill:#694c39;stroke:none"
             id="path6981"
             d="m 185,393 q -0.8,0 -1.4,0.9 -0.6,0.8 -0.6,2.1 0,1.3 0.6,2.1 0.6,0.9 1.4,0.9 0.9,0 1.4,-0.9 0.6,-0.8 0.6,-2.1 0,-1.3 -0.6,-2.1 -0.5,-0.9 -1.4,-0.9 z" />
        </g>
      </g>
      <g
         transform="translate(-251.25,-415.50617)"
         id="g3192">
        <g
           id="use3190">
          <path
             style="fill:#694c39;stroke:none"
             id="path6985"
             d="m 167,393 q -0.8,0 -1.4,0.9 -0.6,0.8 -0.6,2.1 0,1.3 0.6,2.1 0.6,0.9 1.4,0.9 0.85,0 1.4,-0.9 0.6,-0.8 0.6,-2.1 0,-1.3 -0.6,-2.1 -0.55,-0.9 -1.4,-0.9 z" />
        </g>
      </g>
      <g
         transform="translate(-251.25,-415.50617)"
         id="g3196">
        <g
           id="use3194">
          <path
             style="fill:#694c39;stroke:none"
             id="path6989"
             d="m 169,403.3 q 0,0.75 2.05,1.2 2.1,0.5 4.95,0.5 2.9,0 5,-0.5 2,-0.45 2,-1.2 0,-1.75 -2,-3 -2.1,-1.3 -5,-1.3 -2.85,0 -4.95,1.3 -1.85,1.25 -2.05,3 z" />
        </g>
      </g>
      <g
         transform="translate(-251.25,-415.50617)"
         id="g3200">
        <g
           id="use3198">
          <path
             style="fill:#2ecc71;stroke:none"
             id="path6993"
             d="m 158,388.55 q -0.05,2.45 2.65,2.45 h 30.7 q 2.65,0 2.65,-2.45 v -2.35 q -17.75,-2.05 -36,0 z" />
          <path
             style="fill:#28b162;stroke:none"
             id="path6995"
             d="m 158,378.6 v 7.6 q 18.25,-2.05 36,0 v -7.6 h -0.05 q -0.55,-3.95 -5.3,-4.6 -12.65,-1.95 -25.25,-0.05 -4.85,0.7 -5.35,4.65 z" />
        </g>
      </g>
      <g
         transform="translate(-251.25,-415.50617)"
         id="g3204">
        <g
           id="use3202">
          <path
             style="fill:#d7bd93;stroke:none"
             id="path6999"
             d="m 173,399.9 q 0,0.45 0.9,0.8 0.9,0.3 2.15,0.3 1.2,0 2.1,-0.3 0.85,-0.35 0.85,-0.8 0,-1.15 -0.85,-2 -0.9,-0.9 -2.1,-0.9 -1.25,0 -2.15,0.9 -0.8,0.85 -0.9,2 z" />
        </g>
      </g>
      <g
         transform="translate(-251.25,-415.50617)"
         id="g3208">
        <g
           id="use3206">
          <path
             style="fill:#ffffff;stroke:none"
             id="path7003"
             d="m 175.95,379 q -3.3,0 -5.7,1.9 -2.05,1.75 -2.25,4.1 h 16 q -0.25,-2.35 -2.4,-4.1 -2.3,-1.9 -5.65,-1.9 z" />
        </g>
      </g>
      <g
         transform="translate(-251.25,-415.50617)"
         id="g3212">
        <g
           id="use3210">
          <path
             style="fill:#333333;stroke:none"
             id="path7007"
             d="m 170.5,416.5 q -1.75,-1.5 -4.3,-1.5 -2.55,0 -4.4,1.5 -1.8,1.45 -1.8,3.55 0,0.15 0.05,0.2 0,0.15 0,0.25 0.1,0.9 1.55,1.6 0.1,0.05 0.2,0.1 0.5,0.2 1.1,0.4 1.5,0.4 3.3,0.4 1.8,0 3.25,-0.4 0.55,-0.2 1.05,-0.4 0.9,-0.45 1.4,-0.9 0.35,-0.4 0.45,-0.8 0,-0.1 0,-0.25 0,-0.05 0,-0.2 0,-2.1 -1.85,-3.55 z" />
        </g>
      </g>
      <g
         transform="translate(-251.25,-415.50617)"
         id="g3216">
        <g
           id="use3214">
          <path
             style="fill:#2ecc71;stroke:none"
             id="path7011"
             d="m 187.2,409.15 q 0.3,-0.15 0.55,-0.25 1.75,-0.85 3.55,-0.35 2.35,0.65 3.5,2.6 0.45,0.85 0.6,1.65 0.6,-1.1 0.6,-2.4 0,-2.25 -1.75,-3.95 -1.1,-1.15 -2.7,-1.45 -0.3,1.35 -4.35,4.15 z" />
          <path
             style="fill:#ffe0b1;stroke:none"
             id="path7013"
             d="m 185.9,411.7 q 0,1.95 1.15,3.85 1.1,2 2.75,2.9 1.5,0.9 2.65,0.3 0.1,-0.05 0.2,-0.15 0.3,-0.15 0.55,-0.3 1.55,-1.1 2.05,-2.95 0.35,-1.35 0.15,-2.55 -0.15,-0.8 -0.6,-1.65 -1.15,-1.95 -3.5,-2.6 -1.8,-0.5 -3.55,0.35 -0.25,0.1 -0.55,0.25 -0.05,0.05 -0.1,0.1 -0.05,0 -0.1,0.05 -1.05,0.65 -1.1,2.4 z" />
        </g>
      </g>
    </g>
  </g>
</svg>
