<?xml version="1.0" encoding="UTF-8" standalone="no"?>
<svg
   xmlns:dc="http://purl.org/dc/elements/1.1/"
   xmlns:cc="http://creativecommons.org/ns#"
   xmlns:rdf="http://www.w3.org/1999/02/22-rdf-syntax-ns#"
   xmlns:svg="http://www.w3.org/2000/svg"
   xmlns="http://www.w3.org/2000/svg"
   width="64px"
   height="64px"
   viewBox="0 0 64 64"
   version="1.1"
   id="SVGRoot">
  <defs
     id="defs6023" />
  <metadata
     id="metadata6026">
    <rdf:RDF>
      <cc:Work
         rdf:about="">
        <dc:format>image/svg+xml</dc:format>
        <dc:type
           rdf:resource="http://purl.org/dc/dcmitype/StillImage" />
        <dc:title></dc:title>
      </cc:Work>
    </rdf:RDF>
  </metadata>
  <g
     transform="translate(117.15254,53.9661)"
     id="g2358">
    <g
       transform="translate(-409.14975,-567.9701)"
       id="g3516">
      <g
         id="use3514">
        <path
           style="fill:#2ecc71;stroke:none"
           id="path2276"
           d="m 313.7,551.4 q -2.85,2.55 -3.2,7.65 11.85,0 15.05,-7.65 z" />
        <path
           style="fill:#e74c3c;stroke:none"
           id="path2278"
           d="m 310.7,563.6 q 0.05,0.2 0.1,0.4 0.7,2.95 4.1,2.95 h 24.5 q 2.5,0 3.5,-1.65 0.25,-0.4 0.4,-0.95 0.1,-0.3 0.15,-0.75 0.15,-0.65 0.2,-1.3 0.55,-7.35 -3.1,-10.9 h -15 q -3.2,7.65 -15.05,7.65 -0.1,1.5 0,3.2 v 0.05 q 0.1,0.5 0.15,0.95 0.05,0.2 0.05,0.35 z" />
      </g>
    </g>
    <g
       transform="translate(-409.14975,-567.9701)"
       id="g3520">
      <g
         id="use3518">
        <path
           style="fill:#333333;stroke:none"
           id="path2282"
           d="m 321.95,568 q 0,0.15 0,0.2 0,0.15 0,0.25 0.1,0.4 0.45,0.8 0.5,0.45 1.35,0.95 0.55,0.2 1.1,0.4 1.4,0.4 3.25,0.4 1.8,0 3.3,-0.4 0.55,-0.2 1.05,-0.4 0.15,-0.05 0.25,-0.1 1.45,-0.75 1.55,-1.65 0,-0.1 0,-0.25 0.05,-0.05 0.05,-0.2 0,-2.1 -1.85,-3.55 -1.8,-1.5 -4.35,-1.5 -2.55,0 -4.35,1.5 -1.8,1.45 -1.8,3.55 z" />
      </g>
    </g>
    <g
       transform="translate(-409.14975,-567.9701)"
       id="g3524">
      <g
         id="use3522">
        <path
           style="fill:#2ecc71;stroke:none"
           id="path2286"
           d="m 336.65,554.3 q -0.25,-0.3 -0.55,-0.55 -1.1,-0.9 -2.3,-1.2 -0.7,-0.2 -1.7,-0.1 -2,0.2 -3.45,1.7 -1.45,2 -1.35,5.95 0.05,0.3 0.05,0.65 0.15,1.5 1.75,1.2 1.6,-0.3 3.75,-0.2 2.2,0.1 3.3,0.55 1,0.35 1.65,-3.05 0.3,-3 -1.15,-4.95 z" />
      </g>
    </g>
    <g
       transform="translate(-409.14975,-567.9701)"
       id="g3528">
      <g
         id="use3526">
        <path
           style="fill:#ffe0b1;stroke:none"
           id="path2290"
           d="m 327.65,562.15 q 0.95,1.7 2.9,2.75 1.95,1.2 3.8,1.15 1.75,0.05 2.45,-1.1 0.1,-0.05 0.15,-0.2 0.15,-0.3 0.3,-0.5 0.85,-1.75 0.35,-3.6 -0.4,-1.35 -1.2,-2.3 -0.45,-0.6 -1.35,-1.15 -1.95,-1.15 -4.35,-0.5 -1.8,0.45 -2.85,2.1 -0.15,0.25 -0.4,0.5 0.05,0.05 0,0.15 -0.05,0 -0.05,0.1 -0.6,1.05 0.25,2.6 z" />
      </g>
    </g>
    <g
       transform="translate(-409.14975,-567.9701)"
       id="g3532">
      <g
         id="use3530">
        <path
           style="fill:#694c39;stroke:none"
           id="path2294"
           d="M 340.25,529.8 H 329.6 q -1.7,18.7 14.7,20.8 0,-0.05 0,-0.1 0.6,-3.65 0.65,-7.35 0.05,-1.6 0,-3.15 -0.15,-3.2 -0.65,-6.4 -0.2,-1.75 -1.1,-2.7 -1.05,-1.1 -2.95,-1.1 z" />
        <path
           style="fill:#ffe0b1;stroke:none"
           id="path2296"
           d="m 311.5,533.5 q -0.35,2.95 -0.55,5.85 -0.1,1.9 -0.05,3.8 0,0.3 0,0.6 0.1,3.25 0.5,6.35 0.05,0.2 0.05,0.4 0.05,0.2 0.1,0.45 0.7,3.25 4.15,3.25 h 24.55 q 2.5,0 3.5,-1.8 0.25,-0.45 0.4,-1.1 0.1,-0.3 0.15,-0.7 -16.4,-2.1 -14.7,-20.8 h -13.9 q -2.05,0 -3.1,1.1 -0.85,0.95 -1.1,2.6 z" />
      </g>
    </g>
    <g
       transform="translate(-409.14975,-567.9701)"
       id="g3536">
      <g
         id="use3534">
        <path
           style="fill:#694c39;stroke:none"
           id="path2300"
           d="m 323.95,543.85 q 0,-1.3 -0.6,-2.1 -0.6,-0.9 -1.4,-0.9 -0.85,0 -1.4,0.9 -0.6,0.8 -0.6,2.1 0,1.35 0.6,2.15 0.55,0.9 1.4,0.9 0.8,0 1.4,-0.9 0.6,-0.8 0.6,-2.15 z" />
      </g>
    </g>
    <g
       transform="translate(-409.14975,-567.9701)"
       id="g3540">
      <g
         id="use3538">
        <path
           style="fill:#ffe0b1;stroke:none"
           id="path2304"
           d="m 313.05,548.6 q 0.9,-0.35 0.9,-0.8 -0.1,-1.15 -0.9,-2 -0.9,-0.9 -2.15,-0.9 -1.2,0 -2.15,0.9 -0.85,0.85 -0.85,2 0,0.45 0.85,0.8 0.95,0.3 2.15,0.3 1.25,0 2.15,-0.3 z" />
      </g>
    </g>
    <g
       transform="translate(-409.14975,-567.9701)"
       id="g3544">
      <g
         id="use3542">
        <path
           style="fill:#694c39;stroke:none"
           id="path2308"
           d="m 318.9,548.2 q -2.1,-1.3 -4.95,-1.3 -0.3,0 -0.6,0.05 -1.15,0.1 -2,1.25 -0.9,1.25 -0.9,3 0,0.75 0.9,1.2 0.85,0.45 2,0.5 0.3,0 0.6,0 2.85,0 4.95,-0.5 2.05,-0.45 2.05,-1.2 -0.2,-1.75 -2.05,-3 z" />
      </g>
    </g>
    <g
       transform="translate(-409.14975,-567.9701)"
       id="g3548">
      <g
         id="use3546">
        <path
           style="fill:#2ecc71;stroke:none"
           id="path2312"
           d="m 317.9,532.8 q -3.8,-0.25 -7.9,-0.3 -4,0 -8,2.5 -0.15,2.45 3.05,2.6 l 37.35,2.1 q 3.3,0.2 3.4,-2.25 -12,-3.6 -27.9,-4.65 z" />
        <path
           style="fill:#28b162;stroke:none"
           id="path2314"
           d="m 310.3,526.5 q 3.3,0.15 5.55,2.2 1.9,1.75 2.05,4.1 15.9,1.05 27.9,4.65 l 0.15,-2.15 q 0,-0.1 0,-0.2 0.95,-11.65 -15.75,-13.85 -7.05,-0.55 -14.3,0.15 -4.7,0.35 -5.5,4.3 h -0.05 z" />
        <path
           style="fill:#ffffff;stroke:none"
           id="path2316"
           d="m 315.85,528.7 q -2.25,-2.05 -5.55,-2.2 l -0.3,6 q 4.1,0.05 7.9,0.3 -0.15,-2.35 -2.05,-4.1 z" />
      </g>
    </g>
    <g
       transform="translate(-409.14975,-567.9701)"
       id="g3552">
      <g
         id="use3550">
        <path
           style="fill:#ffe0b1;stroke:none"
           id="path2320"
           d="m 337.6,542.95 q -1.3,-1.1 -3.1,-1.1 -1.85,0 -3.2,1.1 -1.3,1.2 -1.3,3 0,1.6 1.3,2.7 1.35,1.25 3.2,1.25 1.8,0 3.1,-1.25 1.3,-1.05 1.3,-2.7 v -0.15 q 0,-1.65 -1.3,-2.85 z" />
      </g>
    </g>
  </g>
</svg>
