<?xml version="1.0" encoding="UTF-8" standalone="no"?>
<svg
   xmlns:dc="http://purl.org/dc/elements/1.1/"
   xmlns:cc="http://creativecommons.org/ns#"
   xmlns:rdf="http://www.w3.org/1999/02/22-rdf-syntax-ns#"
   xmlns:svg="http://www.w3.org/2000/svg"
   xmlns="http://www.w3.org/2000/svg"
   width="64px"
   height="64px"
   viewBox="0 0 64 64"
   version="1.1"
   id="SVGRoot">
  <defs
     id="defs6023" />
  <metadata
     id="metadata6026">
    <rdf:RDF>
      <cc:Work
         rdf:about="">
        <dc:format>image/svg+xml</dc:format>
        <dc:type
           rdf:resource="http://purl.org/dc/dcmitype/StillImage" />
        <dc:title></dc:title>
      </cc:Work>
    </rdf:RDF>
  </metadata>
  <g
     transform="translate(115.52542,53.152541)"
     id="g1059">
    <g
       transform="translate(-333.52542,-419.15871)"
       id="g3116">
      <g
         id="use3114">
        <path
           style="fill:#ffe0b1;stroke:none"
           id="path956"
           d="m 269.25,415.35 q 0.35,-1.35 0.15,-2.55 -0.15,-0.8 -0.6,-1.65 -1.15,-1.95 -3.5,-2.6 -1.8,-0.5 -3.55,0.35 -0.25,0.1 -0.55,0.25 -0.05,0.05 -0.1,0.1 -0.05,0 -0.1,0.05 -1.05,0.65 -1.1,2.4 0,1.95 1.15,3.85 1.1,2 2.75,2.9 1.5,0.9 2.65,0.3 0.1,-0.05 0.2,-0.15 0.3,-0.15 0.55,-0.3 1.55,-1.1 2.05,-2.95 z" />
        <path
           style="fill:#2ecc71;stroke:none"
           id="path958"
           d="m 268.25,406.45 q -1.1,-1.15 -2.7,-1.45 -0.3,1.35 -4.35,4.15 0.3,-0.15 0.55,-0.25 1.75,-0.85 3.55,-0.35 2.35,0.65 3.5,2.6 0.45,0.85 0.6,1.65 0.6,-1.1 0.6,-2.4 0,-2.25 -1.75,-3.95 z" />
      </g>
    </g>
    <g
       transform="translate(-333.52542,-419.15871)"
       id="g3120">
      <g
         id="use3118">
        <path
           style="fill:#333333;stroke:none"
           id="path962"
           d="m 243.45,422.6 q 0.55,-0.2 1.05,-0.4 0.9,-0.45 1.4,-0.9 0.35,-0.4 0.45,-0.8 0,-0.1 0,-0.25 0,-0.05 0,-0.2 0,-2.1 -1.85,-3.55 -1.75,-1.5 -4.3,-1.5 -2.55,0 -4.4,1.5 -1.8,1.45 -1.8,3.55 0,0.15 0.05,0.2 0,0.15 0,0.25 0.1,0.9 1.55,1.6 0.1,0.05 0.2,0.1 0.5,0.2 1.1,0.4 1.5,0.4 3.3,0.4 1.8,0 3.25,-0.4 z" />
      </g>
    </g>
    <g
       transform="translate(-333.52542,-419.15871)"
       id="g3124">
      <g
         id="use3122">
        <path
           style="fill:#cd4335;stroke:none"
           id="path950"
           d="m 244.25,418.65 q 2.35,-1.4 5.75,-1.4 3.4,0 5.75,1.4 0.2,0.2 0.45,0.35 h 1.55 q -0.6,-2.2 -2,-4.1 -0.25,-0.3 -0.45,-0.55 -2.25,-2.4 -5.3,-2.4 -3.05,0 -5.25,2.4 -0.25,0.25 -0.5,0.55 -1.45,1.9 -2,4.1 h 1.55 q 0.2,-0.15 0.45,-0.35 z" />
        <path
           style="fill:#e74c3c;stroke:none"
           id="path952"
           d="m 266.5,415.3 q 0.05,-0.45 0.15,-0.95 v -0.05 q 0.5,-7.55 -3.2,-10.85 H 236.6 q -3.65,3.55 -3.1,10.9 0.05,0.65 0.2,1.3 0.05,0.45 0.15,0.75 0.15,0.55 0.4,0.95 1,1.65 3.5,1.65 h 4.5 q 0.55,-2.2 2,-4.1 0.25,-0.3 0.5,-0.55 2.2,-2.4 5.25,-2.4 3.05,0 5.3,2.4 0.2,0.25 0.45,0.55 1.4,1.9 2,4.1 h 4.5 q 3.4,0 4.1,-2.95 0.05,-0.2 0.1,-0.4 0,-0.15 0.05,-0.35 z" />
      </g>
    </g>
    <g
       transform="translate(-333.52542,-419.15871)"
       id="g3128">
      <g
         id="use3126">
        <path
           style="fill:#d7bd93;stroke:none"
           id="path966"
           d="m 266.55,393 q -1.85,0 -3.15,1.1 -1.25,1.2 -1.3,2.8 v 0.15 q 0.05,1.65 1.3,2.7 1.3,1.25 3.15,1.25 1.85,0 3.15,-1.25 1.3,-1.1 1.3,-2.7 0,-1.75 -1.3,-2.95 -1.3,-1.1 -3.15,-1.1 m -30,1.1 q -1.3,-1.1 -3.15,-1.1 -1.8,0 -3.1,1.1 -1.3,1.2 -1.3,2.8 v 0.15 q 0,1.65 1.3,2.7 1.3,1.25 3.1,1.25 1.85,0 3.15,-1.25 1.3,-1.1 1.3,-2.7 0,-1.75 -1.3,-2.95 z" />
      </g>
    </g>
    <g
       transform="translate(-333.52542,-419.15871)"
       id="g3132">
      <g
         id="use3130">
        <path
           style="fill:#2ecc71;stroke:none"
           id="path970"
           d="m 250,410 q 3.4,0 5.75,-1.55 1.4,-0.95 2,-2.15 h -15.5 q 0.55,1.2 2,2.15 2.35,1.55 5.75,1.55 z" />
        <path
           style="fill:#694c39;stroke:none"
           id="path972"
           d="m 262.35,383.1 q 0.65,8 4.65,12.2 0.05,-1.9 -0.05,-3.8 -0.2,-2.9 -0.55,-5.85 -0.25,-1.6 -1.1,-2.55 -1.05,-1.1 -3.05,-1.1 0.05,0.6 0.1,1.1 m -27.55,0 q -0.9,0.95 -1.1,2.65 -0.5,3.2 -0.65,6.4 -0.05,1.55 0,3.15 4.75,-3.85 4.75,-12.2 -0.05,-0.5 -0.05,-1.1 -1.9,0 -2.95,1.1 z" />
        <path
           style="fill:#ffe0b1;stroke:none"
           id="path974"
           d="m 237.8,383.1 q 0,8.35 -4.75,12.2 0.05,3.65 0.65,7.3 0.05,0.45 0.15,0.8 0.15,0.65 0.4,1.1 1,1.8 3.5,1.8 h 4.5 15.5 4.5 q 3.4,0 4.1,-3.25 0.05,-0.25 0.1,-0.45 0,-0.2 0.05,-0.4 0.4,-3.1 0.5,-6.3 0,-0.3 0,-0.6 -4,-4.2 -4.65,-12.2 -0.05,-0.5 -0.1,-1.1 h -24.5 q 0,0.6 0.05,1.1 z" />
      </g>
    </g>
    <g
       transform="translate(-333.52542,-419.15871)"
       id="g3136">
      <g
         id="use3134">
        <path
           style="fill:#694c39;stroke:none"
           id="path978"
           d="m 259,393 q -0.8,0 -1.4,0.9 -0.6,0.8 -0.6,2.1 0,1.3 0.6,2.1 0.6,0.9 1.4,0.9 0.9,0 1.4,-0.9 0.6,-0.8 0.6,-2.1 0,-1.3 -0.6,-2.1 -0.5,-0.9 -1.4,-0.9 z" />
      </g>
    </g>
    <g
       transform="translate(-333.52542,-419.15871)"
       id="g3140">
      <g
         id="use3138">
        <path
           style="fill:#694c39;stroke:none"
           id="path982"
           d="m 241,393 q -0.8,0 -1.4,0.9 -0.6,0.8 -0.6,2.1 0,1.3 0.6,2.1 0.6,0.9 1.4,0.9 0.85,0 1.4,-0.9 0.6,-0.8 0.6,-2.1 0,-1.3 -0.6,-2.1 -0.55,-0.9 -1.4,-0.9 z" />
      </g>
    </g>
    <g
       transform="translate(-333.52542,-419.15871)"
       id="g3144">
      <g
         id="use3142">
        <path
           style="fill:#694c39;stroke:none"
           id="path986"
           d="m 243,403.3 q 0,0.75 2.05,1.2 2.1,0.5 4.95,0.5 2.9,0 5,-0.5 2,-0.45 2,-1.2 0,-1.75 -2,-3 -2.1,-1.3 -5,-1.3 -2.85,0 -4.95,1.3 -1.85,1.25 -2.05,3 z" />
      </g>
    </g>
    <g
       transform="translate(-333.52542,-419.15871)"
       id="g3148">
      <g
         id="use3146">
        <path
           style="fill:#2ecc71;stroke:none"
           id="path990"
           d="m 232,388.55 q -0.05,2.45 2.65,2.45 h 30.7 q 2.65,0 2.65,-2.45 v -2.35 q -17.75,-2.05 -36,0 z" />
        <path
           style="fill:#28b162;stroke:none"
           id="path992"
           d="m 237.4,373.95 q -4.85,0.7 -5.35,4.65 H 232 v 7.6 q 18.25,-2.05 36,0 v -7.6 h -0.05 q -0.55,-3.95 -5.3,-4.6 -12.65,-1.95 -25.25,-0.05 z" />
      </g>
    </g>
    <g
       transform="translate(-333.52542,-419.15871)"
       id="g3152">
      <g
         id="use3150">
        <path
           style="fill:#d7bd93;stroke:none"
           id="path996"
           d="m 247,399.9 q 0,0.45 0.9,0.8 0.9,0.3 2.15,0.3 1.2,0 2.1,-0.3 0.85,-0.35 0.85,-0.8 0,-1.15 -0.85,-2 -0.9,-0.9 -2.1,-0.9 -1.25,0 -2.15,0.9 -0.8,0.85 -0.9,2 z" />
      </g>
    </g>
    <g
       transform="translate(-333.52542,-419.15871)"
       id="g3156">
      <g
         id="use3154">
        <path
           style="fill:#ffffff;stroke:none"
           id="path1000"
           d="m 249.95,379 q -3.3,0 -5.7,1.9 -2.05,1.75 -2.25,4.1 h 16 q -0.25,-2.35 -2.4,-4.1 -2.3,-1.9 -5.65,-1.9 z" />
      </g>
    </g>
    <g
       transform="translate(-333.52542,-419.15871)"
       id="g3160">
      <g
         id="use3158">
        <path
           style="fill:#333333;stroke:none"
           id="path1004"
           d="m 266,420.5 q 0,-0.1 0,-0.25 0,-0.05 0,-0.2 0,-2.1 -1.8,-3.55 -1.8,-1.5 -4.35,-1.5 -2.55,0 -4.35,1.5 -1.85,1.45 -1.85,3.55 0,0.15 0.05,0.2 0,0.15 0,0.25 0.1,0.9 1.55,1.6 0.1,0.05 0.25,0.1 0.5,0.2 1.05,0.4 1.5,0.4 3.3,0.4 1.85,0 3.25,-0.4 0.55,-0.2 1.1,-0.4 0.85,-0.45 1.35,-0.9 0.35,-0.4 0.45,-0.8 z" />
      </g>
    </g>
    <g
       transform="translate(-333.52542,-419.15871)"
       id="g3164">
      <g
         id="use3162">
        <path
           style="fill:#2ecc71;stroke:none"
           id="path1008"
           d="m 230.6,412.8 q 0.1,-0.8 0.6,-1.65 1.15,-1.95 3.5,-2.6 1.8,-0.5 3.55,0.35 0.25,0.1 0.55,0.25 -4.05,-2.8 -4.35,-4.15 -1.6,0.3 -2.7,1.45 -1.75,1.7 -1.75,3.95 0,1.3 0.6,2.4 z" />
        <path
           style="fill:#ffe0b1;stroke:none"
           id="path1010"
           d="m 230.75,415.35 q 0.5,1.85 2.05,2.95 0.25,0.15 0.55,0.3 0.1,0.1 0.2,0.15 1.15,0.6 2.65,-0.3 1.65,-0.9 2.75,-2.9 1.15,-1.9 1.15,-3.85 -0.05,-1.75 -1.1,-2.4 -0.05,-0.05 -0.1,-0.05 -0.05,-0.05 -0.1,-0.1 -0.3,-0.15 -0.55,-0.25 -1.75,-0.85 -3.55,-0.35 -2.35,0.65 -3.5,2.6 -0.5,0.85 -0.6,1.65 -0.2,1.2 0.15,2.55 z" />
      </g>
    </g>
  </g>
</svg>
