<?xml version="1.0" encoding="UTF-8" standalone="no"?>
<svg
   xmlns:dc="http://purl.org/dc/elements/1.1/"
   xmlns:cc="http://creativecommons.org/ns#"
   xmlns:rdf="http://www.w3.org/1999/02/22-rdf-syntax-ns#"
   xmlns:svg="http://www.w3.org/2000/svg"
   xmlns="http://www.w3.org/2000/svg"
   width="64px"
   height="64px"
   viewBox="0 0 64 64"
   version="1.1"
   id="SVGRoot">
  <defs
     id="defs6023" />
  <metadata
     id="metadata6026">
    <rdf:RDF>
      <cc:Work
         rdf:about="">
        <dc:format>image/svg+xml</dc:format>
        <dc:type
           rdf:resource="http://purl.org/dc/dcmitype/StillImage" />
        <dc:title></dc:title>
      </cc:Work>
    </rdf:RDF>
  </metadata>
  <g
     transform="translate(108.47458,54.50847)"
     id="g2766">
    <g
       transform="translate(-548.84726,-568.48747)"
       id="g3556">
      <g
         id="use3554">
        <path
           style="fill:#333333;stroke:none"
           id="path2677"
           d="m 491.05,561.6 q -2.3,-0.4 -4.5,0.9 -2.2,1.25 -3,3.45 -0.85,2.15 0.2,4 0.05,0.1 0.1,0.15 0.05,0.15 0.1,0.2 0.3,0.3 0.8,0.5 0.7,0.15 1.7,0.15 0.55,-0.1 1.15,-0.2 1.4,-0.35 3,-1.25 1.55,-0.9 2.65,-2 0.4,-0.5 0.7,-0.9 0.1,-0.1 0.2,-0.2 0.85,-1.4 0.5,-2.25 -0.05,-0.05 -0.1,-0.2 -0.05,-0.05 -0.1,-0.15 -1.05,-1.85 -3.4,-2.2 z" />
      </g>
    </g>
    <g
       transform="translate(-548.84726,-568.48747)"
       id="g3560">
      <g
         id="use3558">
        <path
           style="fill:#333333;stroke:none"
           id="path2681"
           d="m 458.6,561.55 q -2.35,0.35 -3.4,2.2 -0.05,0.1 -0.1,0.15 -0.05,0.15 -0.1,0.2 -0.1,0.4 0,0.9 0.2,0.65 0.7,1.55 0.35,0.4 0.75,0.9 1,1.05 2.6,1.95 1.55,0.9 3.05,1.3 0.6,0.1 1.1,0.2 0.2,0 0.3,0 1.65,0.1 2.2,-0.65 0.05,-0.05 0.1,-0.2 0.05,-0.05 0.1,-0.15 1.05,-1.85 0.2,-4 -0.8,-2.2 -3,-3.5 -2.2,-1.25 -4.5,-0.85 z" />
      </g>
    </g>
    <g
       transform="translate(-548.84726,-568.48747)"
       id="g3564">
      <g
         id="use3562">
        <path
           style="fill:#2ecc71;stroke:none"
           id="path2685"
           d="m 461.7,551.4 q -2.85,2.55 -3.2,7.65 11.85,0 15.05,-7.65 z" />
        <path
           style="fill:#e74c3c;stroke:none"
           id="path2687"
           d="m 491.3,564.35 q 0.1,-0.3 0.15,-0.75 0.15,-0.65 0.2,-1.3 0.55,-7.35 -3.1,-10.9 h -15 q -3.2,7.65 -15.05,7.65 -0.1,1.5 0,3.2 v 0.05 q 0.1,0.5 0.15,0.95 0.05,0.2 0.05,0.35 0.05,0.2 0.1,0.4 0.7,2.95 4.1,2.95 h 24.5 q 2.5,0 3.5,-1.65 0.25,-0.4 0.4,-0.95 z" />
      </g>
    </g>
    <g
       transform="translate(-548.84726,-568.48747)"
       id="g3568">
      <g
         id="use3566">
        <path
           style="fill:#2ecc71;stroke:none"
           id="path2691"
           d="m 480.8,552.35 q -1.85,-0.8 -3.85,-0.25 -2.25,1 -4.15,4.5 -0.1,0.25 -0.3,0.55 -0.6,1.4 0.95,1.95 1.5,0.55 3.35,1.65 1.85,1.2 2.6,2.15 0.65,0.8 2.9,-1.8 1.8,-2.45 1.5,-4.9 -0.05,-0.35 -0.2,-0.7 -0.5,-1.35 -1.4,-2.2 -0.5,-0.5 -1.4,-0.95 z" />
      </g>
    </g>
    <g
       transform="translate(-548.84726,-568.48747)"
       id="g3572">
      <g
         id="use3570">
        <path
           style="fill:#ffe0b1;stroke:none"
           id="path2695"
           d="m 473.95,555.7 q -0.3,0.2 -0.6,0.25 0,0.1 -0.1,0.15 -0.05,0 -0.1,0.05 -1,0.6 -1.05,2.35 -0.05,2 1.15,3.85 1.1,2.05 2.7,2.9 1.5,0.95 2.65,0.3 0.15,0 0.25,-0.15 0.25,-0.15 0.5,-0.25 1.65,-1.1 2.1,-2.95 0.35,-1.35 0.1,-2.6 -0.1,-0.75 -0.55,-1.65 -1.15,-1.95 -3.55,-2.6 -1.8,-0.5 -3.5,0.35 z" />
      </g>
    </g>
    <g
       transform="translate(-548.84726,-568.48747)"
       id="g3576">
      <g
         id="use3574">
        <path
           style="fill:#ffe0b1;stroke:none"
           id="path2699"
           d="m 488.25,554.2 q 2.5,0 3.5,-1.8 0.25,-0.45 0.4,-1.1 0.1,-0.3 0.15,-0.7 -16.4,-2.1 -14.7,-20.8 h -13.9 q -2.05,0 -3.1,1.1 -0.85,0.95 -1.1,2.6 -0.35,2.95 -0.55,5.85 -0.1,1.9 -0.05,3.8 0,0.3 0,0.6 0.1,3.25 0.5,6.35 0.05,0.2 0.05,0.4 0.05,0.2 0.1,0.45 0.7,3.25 4.15,3.25 z" />
        <path
           style="fill:#694c39;stroke:none"
           id="path2701"
           d="m 491.2,530.9 q -1.05,-1.1 -2.95,-1.1 H 477.6 q -1.7,18.7 14.7,20.8 0,-0.05 0,-0.1 0.6,-3.65 0.65,-7.35 0.05,-1.6 0,-3.15 -0.15,-3.2 -0.65,-6.4 -0.2,-1.75 -1.1,-2.7 z" />
      </g>
    </g>
    <g
       transform="translate(-548.84726,-568.48747)"
       id="g3580">
      <g
         id="use3578">
        <path
           style="fill:#694c39;stroke:none"
           id="path2705"
           d="m 468.55,541.75 q -0.6,0.8 -0.6,2.1 0,1.35 0.6,2.15 0.55,0.9 1.4,0.9 0.8,0 1.4,-0.9 0.6,-0.8 0.6,-2.15 0,-1.3 -0.6,-2.1 -0.6,-0.9 -1.4,-0.9 -0.85,0 -1.4,0.9 z" />
      </g>
    </g>
    <g
       transform="translate(-548.84726,-568.48747)"
       id="g3584">
      <g
         id="use3582">
        <path
           style="fill:#ffe0b1;stroke:none"
           id="path2709"
           d="m 461.05,548.6 q 0.9,-0.35 0.9,-0.8 -0.1,-1.15 -0.9,-2 -0.9,-0.9 -2.15,-0.9 -1.2,0 -2.15,0.9 -0.85,0.85 -0.85,2 0,0.45 0.85,0.8 0.95,0.3 2.15,0.3 1.25,0 2.15,-0.3 z" />
      </g>
    </g>
    <g
       transform="translate(-548.84726,-568.48747)"
       id="g3588">
      <g
         id="use3586">
        <path
           style="fill:#694c39;stroke:none"
           id="path2713"
           d="m 466.9,552.4 q 2.05,-0.45 2.05,-1.2 -0.2,-1.75 -2.05,-3 -2.1,-1.3 -4.95,-1.3 -0.3,0 -0.6,0.05 -1.15,0.1 -2,1.25 -0.9,1.25 -0.9,3 0,0.75 0.9,1.2 0.85,0.45 2,0.5 0.3,0 0.6,0 2.85,0 4.95,-0.5 z" />
      </g>
    </g>
    <g
       transform="translate(-548.84726,-568.48747)"
       id="g3592">
      <g
         id="use3590">
        <path
           style="fill:#ffffff;stroke:none"
           id="path2717"
           d="m 463.85,528.7 q -2.25,-2.05 -5.55,-2.2 l -0.3,6 q 4.1,0.05 7.9,0.3 -0.15,-2.35 -2.05,-4.1 z" />
        <path
           style="fill:#2ecc71;stroke:none"
           id="path2719"
           d="m 490.4,539.7 q 3.3,0.2 3.4,-2.25 -12,-3.6 -27.9,-4.65 -3.8,-0.25 -7.9,-0.3 -4,0 -8,2.5 -0.15,2.45 3.05,2.6 z" />
        <path
           style="fill:#28b162;stroke:none"
           id="path2721"
           d="m 493.8,537.45 0.15,-2.15 q 0,-0.1 0,-0.2 0.95,-11.65 -15.75,-13.85 -7.05,-0.55 -14.3,0.15 -4.7,0.35 -5.5,4.3 h -0.05 l -0.05,0.8 q 3.3,0.15 5.55,2.2 1.9,1.75 2.05,4.1 15.9,1.05 27.9,4.65 z" />
      </g>
    </g>
    <g
       transform="translate(-548.84726,-568.48747)"
       id="g3596">
      <g
         id="use3594">
        <path
           style="fill:#ffe0b1;stroke:none"
           id="path2725"
           d="m 486.9,545.95 v -0.15 q 0,-1.65 -1.3,-2.85 -1.3,-1.1 -3.1,-1.1 -1.85,0 -3.2,1.1 -1.3,1.2 -1.3,3 0,1.6 1.3,2.7 1.35,1.25 3.2,1.25 1.8,0 3.1,-1.25 1.3,-1.05 1.3,-2.7 z" />
      </g>
    </g>
  </g>
</svg>
