<?xml version="1.0" encoding="UTF-8" standalone="no"?>
<svg
   xmlns:dc="http://purl.org/dc/elements/1.1/"
   xmlns:cc="http://creativecommons.org/ns#"
   xmlns:rdf="http://www.w3.org/1999/02/22-rdf-syntax-ns#"
   xmlns:svg="http://www.w3.org/2000/svg"
   xmlns="http://www.w3.org/2000/svg"
   width="64px"
   height="64px"
   viewBox="0 0 64 64"
   version="1.1"
   id="SVGRoot">
  <defs
     id="defs6023" />
  <metadata
     id="metadata6026">
    <rdf:RDF>
      <cc:Work
         rdf:about="">
        <dc:format>image/svg+xml</dc:format>
        <dc:type
           rdf:resource="http://purl.org/dc/dcmitype/StillImage" />
        <dc:title></dc:title>
      </cc:Work>
    </rdf:RDF>
  </metadata>
  <g
     transform="translate(109.55932,53.694911)"
     id="g1609">
    <g
       transform="translate(-549.55932,-419.70108)"
       id="g3008">
      <g
         id="use3006">
        <path
           style="fill:#ffe0b1;stroke:none"
           id="path1528"
           d="m 489.2,418.3 q 1.55,-1.1 2.05,-2.95 0.35,-1.35 0.15,-2.55 -0.15,-0.8 -0.6,-1.65 -1.15,-1.95 -3.5,-2.6 -1.8,-0.5 -3.55,0.35 -0.25,0.1 -0.55,0.25 -0.05,0.05 -0.1,0.1 -0.05,0 -0.1,0.05 -1.05,0.65 -1.1,2.4 0,1.95 1.15,3.85 1.1,2 2.75,2.9 1.5,0.9 2.65,0.3 0.1,-0.05 0.2,-0.15 0.3,-0.15 0.55,-0.3 z" />
        <path
           style="fill:#2ecc71;stroke:none"
           id="path1530"
           d="m 490.25,406.45 q -1.1,-1.15 -2.7,-1.45 -0.3,1.35 -4.35,4.15 0.3,-0.15 0.55,-0.25 1.75,-0.85 3.55,-0.35 2.35,0.65 3.5,2.6 0.45,0.85 0.6,1.65 0.6,-1.1 0.6,-2.4 0,-2.25 -1.75,-3.95 z" />
      </g>
    </g>
    <g
       transform="translate(-549.55932,-419.70108)"
       id="g3012">
      <g
         id="use3010">
        <path
           style="fill:#333333;stroke:none"
           id="path1534"
           d="m 468.35,420.05 q 0,-2.1 -1.85,-3.55 -1.75,-1.5 -4.3,-1.5 -2.55,0 -4.4,1.5 -1.8,1.45 -1.8,3.55 0,0.15 0.05,0.2 0,0.15 0,0.25 0.1,0.9 1.55,1.6 0.1,0.05 0.2,0.1 0.5,0.2 1.1,0.4 1.5,0.4 3.3,0.4 1.8,0 3.25,-0.4 0.55,-0.2 1.05,-0.4 0.9,-0.45 1.4,-0.9 0.35,-0.4 0.45,-0.8 0,-0.1 0,-0.25 0,-0.05 0,-0.2 z" />
      </g>
    </g>
    <g
       transform="translate(-549.55932,-419.70108)"
       id="g3016">
      <g
         id="use3014">
        <path
           style="fill:#e74c3c;stroke:none"
           id="path1538"
           d="m 488.45,415.65 q 0,-0.15 0.05,-0.35 0.05,-0.45 0.15,-0.95 v -0.05 q 0.5,-7.55 -3.2,-10.85 H 458.6 q -3.65,3.55 -3.1,10.9 0.05,0.65 0.2,1.3 0.05,0.45 0.15,0.75 0.15,0.55 0.4,0.95 1,1.65 3.5,1.65 h 6.05 q 0.2,-0.15 0.45,-0.35 2.35,-1.4 5.75,-1.4 3.4,0 5.75,1.4 0.2,0.2 0.45,0.35 h 6.05 q 3.4,0 4.1,-2.95 0.05,-0.2 0.1,-0.4 M 466,412.3 v 1.25 q 0,1.35 -0.95,2.3 -0.95,0.95 -2.3,0.95 -1.35,0 -2.3,-0.95 -0.95,-0.95 -0.95,-2.3 v -1.25 h 6.5 m 18.5,0 v 1.25 q 0,1.35 -0.95,2.3 -0.95,0.95 -2.3,0.95 -1.35,0 -2.3,-0.95 -0.95,-0.95 -0.95,-2.3 v -1.25 z" />
        <path
           style="fill:#cd4335;stroke:none"
           id="path1540"
           d="M 484.5,413.55 V 412.3 H 478 v 1.25 q 0,1.35 0.95,2.3 0.95,0.95 2.3,0.95 1.35,0 2.3,-0.95 0.95,-0.95 0.95,-2.3 m -18.5,0 v -1.25 h -6.5 v 1.25 q 0,1.35 0.95,2.3 0.95,0.95 2.3,0.95 1.35,0 2.3,-0.95 0.95,-0.95 0.95,-2.3 z" />
      </g>
    </g>
    <g
       transform="translate(-549.55932,-419.70108)"
       id="g3020">
      <g
         id="use3018">
        <path
           style="fill:#d7bd93;stroke:none"
           id="path1544"
           d="m 491.7,394.1 q -1.3,-1.1 -3.15,-1.1 -1.85,0 -3.15,1.1 -1.25,1.2 -1.3,2.8 v 0.15 q 0.05,1.65 1.3,2.7 1.3,1.25 3.15,1.25 1.85,0 3.15,-1.25 1.3,-1.1 1.3,-2.7 0,-1.75 -1.3,-2.95 M 455.4,393 q -1.8,0 -3.1,1.1 -1.3,1.2 -1.3,2.8 v 0.15 q 0,1.65 1.3,2.7 1.3,1.25 3.1,1.25 1.85,0 3.15,-1.25 1.3,-1.1 1.3,-2.7 0,-1.75 -1.3,-2.95 -1.3,-1.1 -3.15,-1.1 z" />
      </g>
    </g>
    <g
       transform="translate(-549.55932,-419.70108)"
       id="g3024">
      <g
         id="use3022">
        <path
           style="fill:#2ecc71;stroke:none"
           id="path1548"
           d="m 466.25,408.45 q 2.35,1.55 5.75,1.55 3.4,0 5.75,-1.55 1.4,-0.95 2,-2.15 h -15.5 q 0.55,1.2 2,2.15 z" />
        <path
           style="fill:#ffe0b1;stroke:none"
           id="path1550"
           d="m 488.35,403.05 q 0.05,-0.25 0.1,-0.45 0,-0.2 0.05,-0.4 0.25,-1.75 0.35,-3.55 -16.8,4.45 -33.65,0 0.2,2 0.5,3.95 0.05,0.45 0.15,0.8 0.15,0.65 0.4,1.1 1,1.8 3.5,1.8 h 4.5 15.5 4.5 q 3.4,0 4.1,-3.25 z" />
        <path
           style="fill:#694c39;stroke:none"
           id="path1552"
           d="m 484.25,382 h -24.5 q -1.9,0 -2.95,1.1 -0.9,0.95 -1.1,2.65 -0.5,3.2 -0.65,6.4 -0.05,1.55 0,3.15 0,1.7 0.15,3.35 16.85,4.45 33.65,0 0.1,-1.35 0.15,-2.75 0,-0.3 0,-0.6 0.05,-1.9 -0.05,-3.8 -0.2,-2.9 -0.55,-5.85 -0.25,-1.6 -1.1,-2.55 -1.05,-1.1 -3.05,-1.1 z" />
      </g>
    </g>
    <g
       transform="translate(-549.55932,-419.70108)"
       id="g3028">
      <g
         id="use3026">
        <path
           style="fill:#24a65b;stroke:none"
           id="path1556"
           d="m 454,388.55 q -0.05,2.45 2.65,2.45 h 30.7 q 2.65,0 2.65,-2.45 V 386 h -36 z" />
        <path
           style="fill:#28b162;stroke:none"
           id="path1558"
           d="m 484.65,374 q -12.65,-1.95 -25.25,-0.05 -4.85,0.7 -5.35,4.65 H 454 v 7.4 h 36 v -7.4 h -0.05 q -0.55,-3.95 -5.3,-4.6 z" />
      </g>
    </g>
    <g
       transform="translate(-549.55932,-419.70108)"
       id="g3032">
      <g
         id="use3030">
        <path
           style="fill:#694c39;stroke:none"
           id="path1562"
           d="m 472,384 q -2,0 -3.5,1.2 -1.35,1.15 -1.5,2.75 0,0.25 0.15,0.5 0.1,0.25 0.35,0.4 0.25,0.15 0.5,0.15 h 8 q 0.3,0 0.55,-0.15 0.25,-0.15 0.35,-0.4 0.15,-0.25 0.1,-0.55 -0.15,-1.55 -1.55,-2.7 -1.4,-1.2 -3.45,-1.2 z" />
      </g>
    </g>
    <g
       transform="translate(-549.55932,-419.70108)"
       id="g3036">
      <g
         id="use3034">
        <path
           style="fill:#333333;stroke:none"
           id="path1566"
           d="m 488,420.25 q 0,-0.05 0,-0.2 0,-2.1 -1.8,-3.55 -1.8,-1.5 -4.35,-1.5 -2.55,0 -4.35,1.5 -1.85,1.45 -1.85,3.55 0,0.15 0.05,0.2 0,0.15 0,0.25 0.1,0.9 1.55,1.6 0.1,0.05 0.25,0.1 0.5,0.2 1.05,0.4 1.5,0.4 3.3,0.4 1.85,0 3.25,-0.4 0.55,-0.2 1.1,-0.4 0.85,-0.45 1.35,-0.9 0.35,-0.4 0.45,-0.8 0,-0.1 0,-0.25 z" />
      </g>
    </g>
    <g
       transform="translate(-549.55932,-419.70108)"
       id="g3040">
      <g
         id="use3038">
        <path
           style="fill:#2ecc71;stroke:none"
           id="path1570"
           d="m 452,410.4 q 0,1.3 0.6,2.4 0.1,-0.8 0.6,-1.65 1.15,-1.95 3.5,-2.6 1.8,-0.5 3.55,0.35 0.25,0.1 0.55,0.25 -4.05,-2.8 -4.35,-4.15 -1.6,0.3 -2.7,1.45 -1.75,1.7 -1.75,3.95 z" />
        <path
           style="fill:#ffe0b1;stroke:none"
           id="path1572"
           d="m 452.75,415.35 q 0.5,1.85 2.05,2.95 0.25,0.15 0.55,0.3 0.1,0.1 0.2,0.15 1.15,0.6 2.65,-0.3 1.65,-0.9 2.75,-2.9 1.15,-1.9 1.15,-3.85 -0.05,-1.75 -1.1,-2.4 -0.05,-0.05 -0.1,-0.05 -0.05,-0.05 -0.1,-0.1 -0.3,-0.15 -0.55,-0.25 -1.75,-0.85 -3.55,-0.35 -2.35,0.65 -3.5,2.6 -0.5,0.85 -0.6,1.65 -0.2,1.2 0.15,2.55 z" />
      </g>
    </g>
  </g>
</svg>
